<svg xmlns="http://www.w3.org/2000/svg" width="256" height="256" fill="none"><rect width="256" height="256" rx="80" style="fill:#000;stroke:none;stroke-width:.396357"/><g fill="#09090b" fill-rule="evenodd" clip-rule="evenodd"><path d="m282.857 257.192-37.64 50.15 39.21.004 17.95-23.88 17.95 23.876h39.21l-75.11-100.256-39.21-.003zm23.775-31.764 13.696-18.345h39.21l-33.234 44.435zM119.537 135.21v129.485h36.626V230.29h19.993c17.99-.01 40.841-3.946 52.762-21.828 4.686-7.152 7.03-15.6 7.03-25.342 0-9.865-2.344-18.374-7.03-25.527-4.687-7.276-11.346-12.825-19.978-16.648-8.51-3.823-18.37-5.735-30.21-5.735zm90.963 95.183s-14.972 6.285-34.681 6.047l21.162 28.255h39.21zm-54.337-28.405h20.348c7.646 0 13.319-1.665 17.018-4.995 3.823-3.33 5.735-7.954 5.735-13.874 0-6.042-1.912-10.729-5.735-14.058-3.7-3.33-9.372-4.995-17.018-4.995h-20.348z" style="fill:#fafafa;fill-opacity:1;stroke-width:.9375" transform="matrix(.91667 0 0 .91667 -91.576 -74.838)"/></g></svg>