<svg width="491" height="124" viewBox="0 0 491 124" fill="none" xmlns="http://www.w3.org/2000/svg">
<g clip-path="url(#clip0_74_81)">
<path fill-rule="evenodd" clip-rule="evenodd" d="M32.0859 22.4377L46.6154 7.90826C50.9064 3.61723 56.5438 1.47656 62.1812 1.47656C67.8187 1.47656 73.4561 3.61723 77.7471 7.90826L92.2765 22.4377L83.4523 31.2619L68.9229 16.7325C67.0728 14.8824 64.6319 13.9622 62.1812 13.9622C59.7306 13.9622 57.2897 14.8824 55.4396 16.7325L40.9101 31.2619L32.0859 22.4377Z" fill="white" stroke="white" stroke-width="0.968629" stroke-miterlimit="10"/>
<path fill-rule="evenodd" clip-rule="evenodd" d="M52.0547 35.7621C52.0547 29.9988 56.7332 25.3203 62.4965 25.3203C68.2598 25.3203 72.9383 29.9988 72.9383 35.7621C72.9383 41.5255 68.2695 46.204 62.4965 46.204C56.7235 46.204 52.0547 41.5255 52.0547 35.7621Z" fill="white" stroke="white" stroke-width="0.968629" stroke-miterlimit="10"/>
<path fill-rule="evenodd" clip-rule="evenodd" d="M102.566 32.4062L117.096 46.9357C121.377 51.217 123.528 56.8641 123.528 62.5015C123.528 68.139 121.387 73.7764 117.096 78.0674L102.566 92.5968L93.7422 83.7726L108.272 69.2432C110.122 67.3931 111.042 64.9522 111.042 62.5015C111.042 60.0509 110.122 57.61 108.272 55.7599L93.7422 41.2305L102.566 32.4062Z" fill="#2300EA" stroke="#2300EA" stroke-width="0.968629" stroke-miterlimit="10"/>
<path fill-rule="evenodd" clip-rule="evenodd" d="M88.6918 52.0547C94.4552 52.0547 99.1336 56.7332 99.1336 62.4965C99.1336 68.2598 94.4552 72.9383 88.6918 72.9383C82.9285 72.9383 78.25 68.2598 78.25 62.4965C78.25 56.7332 82.9285 52.0547 88.6918 52.0547Z" fill="#2300EA" stroke="#2300EA" stroke-width="0.968629" stroke-miterlimit="10"/>
<path fill-rule="evenodd" clip-rule="evenodd" d="M92.2765 102.566L77.7471 117.096C73.4658 121.377 67.8187 123.528 62.1812 123.528C56.5438 123.528 50.9064 121.387 46.6154 117.096L32.0859 102.566L40.9101 93.7422L55.4396 108.272C57.2897 110.122 59.7306 111.042 62.1812 111.042C64.6319 111.042 67.0728 110.122 68.9229 108.272L83.4523 93.7422L92.2765 102.566Z" fill="white" stroke="white" stroke-width="0.968629" stroke-miterlimit="10"/>
<path fill-rule="evenodd" clip-rule="evenodd" d="M72.9383 87.4731C72.9383 93.2364 68.2598 97.9149 62.4965 97.9149C56.7332 97.9149 52.0547 93.2364 52.0547 87.4731C52.0547 81.7097 56.7332 77.0312 62.4965 77.0312C68.2598 77.0312 72.9383 81.7097 72.9383 87.4731Z" fill="white" stroke="white" stroke-width="0.968629" stroke-miterlimit="10"/>
<path fill-rule="evenodd" clip-rule="evenodd" d="M22.4377 92.5968L7.90826 78.0674C3.62692 73.7861 1.47656 68.139 1.47656 62.5015C1.47656 56.8641 3.61723 51.2267 7.90826 46.9357L22.4377 32.4062L31.2619 41.2305L16.7325 55.7599C14.8824 57.61 13.9622 60.0509 13.9622 62.5015C13.9622 64.9522 14.8824 67.3931 16.7325 69.2432L31.2619 83.7726L22.4377 92.5968Z" fill="#2300EA" stroke="#2300EA" stroke-width="0.968629" stroke-miterlimit="10"/>
<path fill-rule="evenodd" clip-rule="evenodd" d="M33.8012 72.9383C28.0379 72.9383 23.3594 68.2598 23.3594 62.4965C23.3594 56.7332 28.0379 52.0547 33.8012 52.0547C39.5645 52.0547 44.243 56.7332 44.243 62.4965C44.243 68.2598 39.5742 72.9383 33.8012 72.9383Z" fill="#2300EA" stroke="#2300EA" stroke-width="0.968629" stroke-miterlimit="10"/>
<path d="M172.742 89.1574V46.6377H156.984V36.0078H199.543V46.6377H183.707V89.1574H172.752H172.742Z" fill="white"/>
<path d="M219.417 89.1561C219.122 88.2801 218.905 86.095 218.836 85.0025C216.582 87.4828 212.793 89.1561 207.98 89.1561C199.821 89.1561 196.031 85.1502 196.031 79.3234C196.031 68.9789 202.951 67.8175 212.498 66.4986C217.232 65.8391 218.541 64.8943 218.541 62.4238C218.541 60.0911 216.208 58.7132 212.498 58.7132C208.197 58.7132 206.454 60.8293 206.012 64.0281H197.193C197.34 56.597 201.415 51.4297 212.931 51.4297C224.447 51.4297 228.226 56.5281 228.226 65.5635V89.1659H219.407L219.417 89.1561ZM218.787 70.6521C217.842 71.597 216.169 72.1088 212.665 72.7683C207.271 73.7919 205.529 75.3175 205.529 78.3785C205.529 81.0754 207.134 82.3844 210.116 82.3844C214.998 82.3844 218.64 78.8116 218.708 74.5891L218.777 70.6521H218.787Z" fill="white"/>
<path d="M233.727 89.1574V36.0078H243.815V89.1574H233.727Z" fill="white"/>
<path d="M257.814 72.7625C258.11 78.1562 261.161 81.6503 265.826 81.6503C268.887 81.6503 271.584 80.1247 272.234 77.6444H281.997C279.812 85.0066 273.907 89.1503 266.259 89.1503C254.31 89.1503 248.336 82.5952 248.336 69.6227C248.336 58.5499 254.675 51.4141 265.678 51.4141C276.682 51.4141 282.509 58.5499 282.509 72.7625H257.814ZM272.745 66.7881C272.598 61.4731 269.104 58.9239 265.383 58.9239C261.663 58.9239 258.464 61.8373 258.1 66.7881H272.745Z" fill="white"/>
<path d="M311.286 89.154V66.8903C311.286 61.2111 309.642 59.6462 305.006 59.6462C299.927 59.6462 297.457 62.4907 297.457 68.091V89.1639H287.742V52.4021H297.004V57.7859C299.248 53.6718 302.978 51.4375 308.884 51.4375C315.911 51.4375 321.059 55.6993 321.059 63.6914V89.1737H311.266L311.286 89.154Z" fill="white"/>
<path d="M347.779 63.0047H357.168V73.8709C357.168 81.9417 352.513 89.1563 341.725 89.1563C330.938 89.1563 326.125 82.0205 326.125 73.7921V39.6484H336.056V49.9634H357.158V57.0992H336.056V72.7685C336.056 77.5815 337.759 80.3768 341.873 80.3768C345.987 80.3768 347.769 77.6602 347.769 72.926V62.9949L347.779 63.0047Z" fill="white"/>
<path d="M397.034 89.1574V65.5452H376.936V89.1574H366.148V36.0078H376.936V56.3523H397.034V36.0078H407.9V89.1574H397.034Z" fill="#2300EA"/>
<path d="M436.472 89.1581V83.0262C433.933 87.2093 430.124 89.1581 425.035 89.1581C417.712 89.1581 412.555 83.7053 412.555 75.6345V51.4219H422.269V74.1384C422.269 78.7742 424.366 81.0085 428.47 81.0085C433.401 81.0085 436.019 77.4947 436.019 72.6423V51.4219H445.655V89.1581H436.462H436.472Z" fill="#2300EA"/>
<path d="M450.727 89.1574V36.0078H460.658V54.935C463.532 50.8995 467.252 48.9606 471.986 48.9606C481.839 48.9606 487.656 57.1102 487.656 68.6653C487.656 81.5491 480.746 89.1476 471.13 89.1476C466.475 89.1476 462.902 87.3661 460.5 83.4881L460.421 89.1476H450.727V89.1574ZM477.419 69.374C477.419 61.5393 474.624 57.5826 468.729 57.5826C463.138 57.5826 460.274 61.6968 460.274 69.994C460.274 76.431 463.994 80.9389 468.807 80.9389C473.62 80.9389 477.419 76.2047 477.419 69.374Z" fill="#2300EA"/>
</g>
<defs>
<clipPath id="clip0_74_81">
<rect width="491" height="124" fill="white"/>
</clipPath>
</defs>
</svg>