<svg width="124" height="124" viewBox="0 0 124 124" fill="none" xmlns="http://www.w3.org/2000/svg">
<g clip-path="url(#clip0_30_66)">
<path fill-rule="evenodd" clip-rule="evenodd" d="M32.085 22.4377L46.6144 7.90826C50.9054 3.61723 56.5428 1.47656 62.1803 1.47656C67.8177 1.47656 73.4551 3.61723 77.7461 7.90826L92.2756 22.4377L83.4513 31.2619L68.9219 16.7325C67.0718 14.8824 64.6309 13.9622 62.1803 13.9622C59.7296 13.9622 57.2887 14.8824 55.4386 16.7325L40.9092 31.2619L32.085 22.4377Z" fill="white" stroke="white" stroke-width="0.968629" stroke-miterlimit="10"/>
<path fill-rule="evenodd" clip-rule="evenodd" d="M52.0581 35.766C52.0581 30.0027 56.7366 25.3242 62.4999 25.3242C68.2633 25.3242 72.9417 30.0027 72.9417 35.766C72.9417 41.5294 68.273 46.2079 62.4999 46.2079C56.7269 46.2079 52.0581 41.5294 52.0581 35.766Z" fill="white" stroke="white" stroke-width="0.968629" stroke-miterlimit="10"/>
<path fill-rule="evenodd" clip-rule="evenodd" d="M102.562 32.4048L117.092 46.9342C121.373 51.2156 123.524 56.8627 123.524 62.5001C123.524 68.1375 121.383 73.7749 117.092 78.066L102.562 92.5954L93.7383 83.7712L108.268 69.2417C110.118 67.3917 111.038 64.9507 111.038 62.5001C111.038 60.0495 110.118 57.6085 108.268 55.7584L93.7383 41.229L102.562 32.4048Z" fill="#2300EA" stroke="#2300EA" stroke-width="0.968629" stroke-miterlimit="10"/>
<path fill-rule="evenodd" clip-rule="evenodd" d="M88.6916 52.0586C94.4549 52.0586 99.1334 56.7371 99.1334 62.5004C99.1334 68.2638 94.4549 72.9422 88.6916 72.9422C82.9282 72.9422 78.2498 68.2638 78.2498 62.5004C78.2498 56.7371 82.9282 52.0586 88.6916 52.0586Z" fill="#2300EA" stroke="#2300EA" stroke-width="0.968629" stroke-miterlimit="10"/>
<path fill-rule="evenodd" clip-rule="evenodd" d="M92.2756 102.562L77.7461 117.092C73.4648 121.373 67.8177 123.524 62.1803 123.524C56.5428 123.524 50.9054 121.383 46.6144 117.092L32.085 102.562L40.9092 93.7383L55.4386 108.268C57.2887 110.118 59.7296 111.038 62.1803 111.038C64.6309 111.038 67.0718 110.118 68.9219 108.268L83.4513 93.7383L92.2756 102.562Z" fill="white" stroke="white" stroke-width="0.968629" stroke-miterlimit="10"/>
<path fill-rule="evenodd" clip-rule="evenodd" d="M72.9417 87.4716C72.9417 93.2349 68.2633 97.9134 62.4999 97.9134C56.7366 97.9134 52.0581 93.2349 52.0581 87.4716C52.0581 81.7083 56.7366 77.0298 62.4999 77.0298C68.2633 77.0298 72.9417 81.7083 72.9417 87.4716Z" fill="white" stroke="white" stroke-width="0.968629" stroke-miterlimit="10"/>
<path fill-rule="evenodd" clip-rule="evenodd" d="M22.4374 92.5954L7.90801 78.066C3.62667 73.7846 1.47632 68.1375 1.47632 62.5001C1.47632 56.8627 3.61699 51.2252 7.90801 46.9342L22.4374 32.4048L31.2617 41.229L16.7322 55.7584C14.8821 57.6085 13.9619 60.0495 13.9619 62.5001C13.9619 64.9507 14.8821 67.3917 16.7322 69.2417L31.2617 83.7712L22.4374 92.5954Z" fill="#2300EA" stroke="#2300EA" stroke-width="0.968629" stroke-miterlimit="10"/>
<path fill-rule="evenodd" clip-rule="evenodd" d="M33.7995 72.9422C28.0361 72.9422 23.3577 68.2638 23.3577 62.5004C23.3577 56.7371 28.0361 52.0586 33.7995 52.0586C39.5628 52.0586 44.2413 56.7371 44.2413 62.5004C44.2413 68.2638 39.5725 72.9422 33.7995 72.9422Z" fill="#2300EA" stroke="#2300EA" stroke-width="0.968629" stroke-miterlimit="10"/>
</g>
<defs>
<clipPath id="clip0_30_66">
<rect width="124" height="124" fill="white"/>
</clipPath>
</defs>
</svg>
