<svg width="256" height="256" viewBox="0 0 256 256" fill="none" xmlns="http://www.w3.org/2000/svg">
  <path fill-rule="evenodd" clip-rule="evenodd"
    d="M173.611 166.311L132.877 219.804H173.524L193.973 191.813L213.183 219.804H256L215.673 165.707L215.15 165.046L207.461 155.332L195.329 140.004L195.258 139.915L193.813 138.089L193.923 138.001L176.286 112.861H134.061L173.611 166.311ZM199.89 133.554L214.959 112.861H254.619L219.874 158.8L199.89 133.554Z"
    fill="#FAFAFA" />
  <path fill-rule="evenodd" clip-rule="evenodd"
    d="M0 36.1959V174.314H39.0678V137.614H60.3938L60.4323 137.671C60.8436 137.653 61.2517 137.634 61.6567 137.614C75.0665 136.968 85.1471 135.549 96.385 131.385C96.7596 131.246 97.1355 131.104 97.5128 130.959L97.4591 130.881C105.816 126.86 112.331 121.344 117.006 114.331C122.005 106.702 124.504 97.6915 124.504 87.2997C124.504 76.7764 122.005 67.7 117.006 60.0706C112.007 52.3097 104.904 46.3903 95.6964 42.3125C86.62 38.2347 75.7679 36.1959 63.1399 36.1959H0ZM102.156 137.725L64.8705 144.175L85.4361 174.314H127.266L102.156 137.725ZM39.0678 107.426H60.7721C68.9277 107.426 74.9786 105.65 78.9248 102.098C83.0026 98.5465 85.0415 93.6137 85.0415 87.2997C85.0415 80.8542 83.0026 75.8556 78.9248 72.304C74.9786 68.7523 68.9277 66.9765 60.7721 66.9765H39.0678V107.426Z"
    fill="#FAFAFA" />
</svg>