<svg width="491" height="124" viewBox="0 0 491 124" fill="none" xmlns="http://www.w3.org/2000/svg">
<g clip-path="url(#clip0_2854_6882)">
<path fill-rule="evenodd" clip-rule="evenodd" d="M32.0854 22.4377L46.6149 7.90826C50.9059 3.61723 56.5433 1.47656 62.1807 1.47656C67.8182 1.47656 73.4556 3.61723 77.7466 7.90826L92.276 22.4377L83.4518 31.2619L68.9224 16.7325C67.0723 14.8824 64.6314 13.9622 62.1807 13.9622C59.7301 13.9622 57.2892 14.8824 55.4391 16.7325L40.9097 31.2619L32.0854 22.4377Z" fill="black" stroke="black" stroke-width="0.968629" stroke-miterlimit="10"/>
<path fill-rule="evenodd" clip-rule="evenodd" d="M52.0586 35.766C52.0586 30.0027 56.7371 25.3242 62.5004 25.3242C68.2638 25.3242 72.9422 30.0027 72.9422 35.766C72.9422 41.5294 68.2734 46.2079 62.5004 46.2079C56.7274 46.2079 52.0586 41.5294 52.0586 35.766Z" fill="black" stroke="black" stroke-width="0.968629" stroke-miterlimit="10"/>
<path fill-rule="evenodd" clip-rule="evenodd" d="M102.562 32.4048L117.092 46.9342C121.373 51.2156 123.524 56.8627 123.524 62.5001C123.524 68.1375 121.383 73.7749 117.092 78.0659L102.562 92.5954L93.7383 83.7712L108.268 69.2417C110.118 67.3917 111.038 64.9507 111.038 62.5001C111.038 60.0495 110.118 57.6085 108.268 55.7584L93.7383 41.229L102.562 32.4048Z" fill="#2300EA" stroke="#2300EA" stroke-width="0.968629" stroke-miterlimit="10"/>
<path fill-rule="evenodd" clip-rule="evenodd" d="M88.6918 52.0586C94.4552 52.0586 99.1336 56.7371 99.1336 62.5004C99.1336 68.2638 94.4552 72.9422 88.6918 72.9422C82.9285 72.9422 78.25 68.2638 78.25 62.5004C78.25 56.7371 82.9285 52.0586 88.6918 52.0586Z" fill="#2300EA" stroke="#2300EA" stroke-width="0.968629" stroke-miterlimit="10"/>
<path fill-rule="evenodd" clip-rule="evenodd" d="M92.276 102.562L77.7466 117.092C73.4653 121.373 67.8182 123.524 62.1807 123.524C56.5433 123.524 50.9059 121.383 46.6149 117.092L32.0854 102.562L40.9097 93.7383L55.4391 108.268C57.2892 110.118 59.7301 111.038 62.1807 111.038C64.6314 111.038 67.0723 110.118 68.9224 108.268L83.4518 93.7383L92.276 102.562Z" fill="black" stroke="black" stroke-width="0.968629" stroke-miterlimit="10"/>
<path fill-rule="evenodd" clip-rule="evenodd" d="M72.9422 87.4716C72.9422 93.2349 68.2638 97.9134 62.5004 97.9134C56.7371 97.9134 52.0586 93.2349 52.0586 87.4716C52.0586 81.7083 56.7371 77.0298 62.5004 77.0298C68.2638 77.0298 72.9422 81.7083 72.9422 87.4716Z" fill="black" stroke="black" stroke-width="0.968629" stroke-miterlimit="10"/>
<path fill-rule="evenodd" clip-rule="evenodd" d="M22.4377 92.5954L7.90826 78.0659C3.62692 73.7846 1.47656 68.1375 1.47656 62.5001C1.47656 56.8627 3.61723 51.2252 7.90826 46.9342L22.4377 32.4048L31.2619 41.229L16.7325 55.7584C14.8824 57.6085 13.9622 60.0495 13.9622 62.5001C13.9622 64.9507 14.8824 67.3917 16.7325 69.2417L31.2619 83.7712L22.4377 92.5954Z" fill="#2300EA" stroke="#2300EA" stroke-width="0.968629" stroke-miterlimit="10"/>
<path fill-rule="evenodd" clip-rule="evenodd" d="M33.7997 72.9422C28.0364 72.9422 23.3579 68.2638 23.3579 62.5004C23.3579 56.7371 28.0364 52.0586 33.7997 52.0586C39.5631 52.0586 44.2416 56.7371 44.2416 62.5004C44.2416 68.2638 39.5728 72.9422 33.7997 72.9422Z" fill="#2300EA" stroke="#2300EA" stroke-width="0.968629" stroke-miterlimit="10"/>
<path d="M172.746 89.1535V46.6338H156.988V36.0039H199.547V46.6338H183.711V89.1535H172.756H172.746Z" fill="black"/>
<path d="M219.42 89.1536C219.124 88.2776 218.908 86.0926 218.839 85.0001C216.585 87.4804 212.796 89.1536 207.983 89.1536C199.823 89.1536 196.034 85.1477 196.034 79.3209C196.034 68.9765 202.953 67.815 212.5 66.4961C217.234 65.8367 218.544 64.8918 218.544 62.4213C218.544 60.0887 216.211 58.7107 212.5 58.7107C208.199 58.7107 206.457 60.8269 206.014 64.0257H197.195C197.343 56.5946 201.418 51.4272 212.933 51.4272C224.449 51.4272 228.229 56.5257 228.229 65.5611V89.1635H219.41L219.42 89.1536ZM218.79 70.6497C217.845 71.5946 216.171 72.1064 212.668 72.7658C207.274 73.7895 205.532 75.315 205.532 78.3761C205.532 81.0729 207.136 82.382 210.118 82.382C215 82.382 218.642 78.8091 218.711 74.5867L218.78 70.6497H218.79Z" fill="black"/>
<path d="M233.73 89.1535V36.0039H243.819V89.1535H233.73Z" fill="black"/>
<path d="M257.815 72.7557C258.111 78.1494 261.162 81.6434 265.827 81.6434C268.888 81.6434 271.585 80.1179 272.235 77.6375H281.998C279.813 84.9997 273.908 89.1434 266.26 89.1434C254.311 89.1434 248.337 82.5883 248.337 69.6159C248.337 58.5431 254.676 51.4072 265.679 51.4072C276.683 51.4072 282.51 58.5431 282.51 72.7557H257.815ZM272.746 66.7812C272.599 61.4663 269.105 58.9171 265.384 58.9171C261.664 58.9171 258.465 61.8305 258.101 66.7812H272.746Z" fill="black"/>
<path d="M311.289 89.1535V66.8898C311.289 61.2106 309.646 59.6457 305.01 59.6457C299.931 59.6457 297.461 62.4902 297.461 68.0906V89.1634H287.746V52.4016H297.008V57.7854C299.252 53.6713 302.982 51.437 308.888 51.437C315.915 51.437 321.063 55.6988 321.063 63.6909V89.1732H311.27L311.289 89.1535Z" fill="black"/>
<path d="M347.785 63.0018H357.175V73.868C357.175 81.9388 352.52 89.1534 341.732 89.1534C330.945 89.1534 326.132 82.0176 326.132 73.7892V39.6455H336.063V49.9605H357.165V57.0963H336.063V72.7656C336.063 77.5786 337.766 80.3739 341.88 80.3739C345.994 80.3739 347.776 77.6573 347.776 72.9231V62.992L347.785 63.0018Z" fill="black"/>
<path d="M397.038 89.1535V65.5413H376.939V89.1535H366.152V36.0039H376.939V56.3484H397.038V36.0039H407.904V89.1535H397.038Z" fill="#2300EA"/>
<path d="M436.476 89.1537V83.0218C433.937 87.2049 430.128 89.1537 425.039 89.1537C417.717 89.1537 412.559 83.7009 412.559 75.6301V51.4175H422.274V74.134C422.274 78.7698 424.37 81.0041 428.474 81.0041C433.406 81.0041 436.024 77.4903 436.024 72.638V51.4175H445.659V89.1537H436.467H436.476Z" fill="#2300EA"/>
<path d="M450.729 89.1535V36.0039H460.66V54.9311C463.534 50.8956 467.254 48.9567 471.988 48.9567C481.841 48.9567 487.658 57.1063 487.658 68.6614C487.658 81.5452 480.748 89.1437 471.132 89.1437C466.477 89.1437 462.904 87.3622 460.502 83.4842L460.423 89.1437H450.729V89.1535ZM477.421 69.37C477.421 61.5354 474.626 57.5787 468.73 57.5787C463.14 57.5787 460.276 61.6929 460.276 69.9901C460.276 76.4271 463.996 80.935 468.809 80.935C473.622 80.935 477.421 76.2008 477.421 69.37Z" fill="#2300EA"/>
</g>
<defs>
<clipPath id="clip0_2854_6882">
<rect width="491" height="124" fill="white"/>
</clipPath>
</defs>
</svg>
