<?xml version="1.0" encoding="utf-8"?>
<!-- Generator: Adobe Illustrator 19.0.0, SVG Export Plug-In . SVG Version: 6.00 Build 0)  -->
<svg version="1.1" id="Layer_1" xmlns="http://www.w3.org/2000/svg" xmlns:xlink="http://www.w3.org/1999/xlink" x="0px" y="0px"
	 viewBox="0 0 604 129" style="enable-background:new 0 0 604 129;" xml:space="preserve">
<style type="text/css">
	.st0{fill:#FFFFFF;}
	.st1{fill-rule:evenodd;clip-rule:evenodd;fill:#FFFFFF;}
</style>
<g>
	<g>
		<g>
			<path class="st0" d="M174.3,3c4.9,0,8.7,2.9,8.7,8.6c0,5.6-3.8,8.5-8.7,8.5h-7.6v11.1h-3.5V3H174.3z M166.7,17.1h7.2
				c3,0,5.6-1.8,5.6-5.5c0-3.8-2.5-5.5-5.6-5.5h-7.2V17.1z"/>
			<path class="st0" d="M208.8,21.7c0,6.1-4.3,10-9.9,10c-5.6,0-9.9-3.9-9.9-10c0-6.1,4.3-10,9.9-10
				C204.5,11.7,208.8,15.6,208.8,21.7z M192.3,21.7c0,4.5,2.9,7.2,6.6,7.2c3.7,0,6.6-2.7,6.6-7.2c0-4.5-2.9-7.1-6.6-7.1
				C195.2,14.5,192.3,17.2,192.3,21.7z"/>
			<path class="st0" d="M234.4,31.3l-5.2-13.8L224,31.3h-2.6L214.1,12h3.6l5.2,14l5.2-14h2.3l5.3,14l5.2-14h3.5L237,31.3H234.4z"/>
			<path class="st0" d="M253,22.9c0.2,3.7,2.6,5.9,6,5.9c2.8,0,4.8-1.3,5.4-3.4l3.2,0.2c-0.8,3.5-4.1,6.1-8.6,6.1
				c-5.5,0-9.6-3.7-9.6-10c0-6.3,4-10,9.5-10c5.5,0,8.8,3.7,8.8,9.4v1.8H253z M253,20.3h11.6c-0.1-3.4-2-5.7-5.6-5.7
				C255.6,14.5,253.2,16.5,253,20.3z"/>
			<path class="st0" d="M285.4,14.9c-3.4,0-5.6,2.3-5.6,5.3v11.1h-3.2V12h3.2v2.9c0.7-1.6,2.5-3.1,5.7-3.1V14.9z"/>
			<path class="st0" d="M294.7,22.9c0.2,3.7,2.6,5.9,6,5.9c2.8,0,4.8-1.3,5.4-3.4l3.2,0.2c-0.8,3.5-4.1,6.1-8.6,6.1
				c-5.5,0-9.6-3.7-9.6-10c0-6.3,4-10,9.5-10c5.5,0,8.8,3.7,8.8,9.4v1.8H294.7z M294.7,20.3h11.6c-0.1-3.4-2-5.7-5.6-5.7
				C297.4,14.5,294.9,16.5,294.7,20.3z"/>
			<path class="st0" d="M333.1,31.3v-3.1c-1.1,2-3.6,3.5-6.8,3.5c-5.3,0-9.3-3.8-9.3-10c0-6.2,4-10,9.3-10c3.2,0,5.6,1.4,6.6,3.2V2
				h3.2v29.4H333.1z M320.3,21.7c0,4.6,2.8,7.2,6.5,7.2c3.6,0,6.2-2.2,6.2-6.6v-1.1c0-4.3-2.6-6.6-6.2-6.6
				C323.1,14.5,320.3,17.1,320.3,21.7z"/>
			<path class="st0" d="M361.8,14.9c1.1-1.9,3.4-3.2,6.7-3.2c5.3,0,9.3,3.8,9.3,10c0,6.2-4,10-9.3,10c-3.3,0-5.7-1.5-6.8-3.5v3.1
				h-3.1V2h3.2V14.9z M361.9,21.1v1.1c0,4.4,2.6,6.6,6.2,6.6c3.7,0,6.5-2.5,6.5-7.2c0-4.6-2.8-7.1-6.5-7.1
				C364.5,14.5,361.9,16.8,361.9,21.1z"/>
			<path class="st0" d="M386.3,40.9l4.6-10.7L383.2,12h3.6l5.8,14.5l5.8-14.5h3.6l-12.2,28.9H386.3z"/>
		</g>
	</g>
	<g id="XMLID_2369_">
		<g>
			<g id="XMLID_281_">
				<g id="XMLID_282_">
					<g>
						<g id="XMLID_283_">
							<g id="XMLID_287_">
								<path id="XMLID_288_" class="st0" d="M64.4,127l0-24.2c25.6,0,45.5-25.4,35.7-52.3c-3.6-10-11.6-17.9-21.6-21.6
									c-27-9.8-52.3,10-52.3,35.7c0,0,0,0,0,0L2,64.7C2,23.8,41.5-8,84.3,5.4c18.7,5.8,33.6,20.7,39.4,39.4
									C137,87.6,105.2,127,64.4,127z"/>
							</g>
							<polygon id="XMLID_286_" class="st1" points="64.4,102.9 40.4,102.9 40.4,78.9 40.4,78.9 64.4,78.9 64.4,78.9 							"/>
							<polygon id="XMLID_285_" class="st1" points="40.3,121.5 21.8,121.5 21.8,121.5 21.8,102.9 40.4,102.9 40.4,121.5 							"/>
							<path id="XMLID_284_" class="st1" d="M21.9,102.9H6.3c0,0,0,0,0,0V87.4c0,0,0,0,0,0h15.5c0,0,0,0,0,0V102.9z"/>
						</g>
					</g>
				</g>
			</g>
			<g id="XMLID_254_">
				<path id="XMLID_278_" class="st0" d="M200.9,52.4c-5.5-3.8-12.4-5.8-20.5-5.8h-17.5v55.5h17.5c8,0,14.9-2.1,20.5-6.1
					c3-2.1,5.4-5.1,7.1-8.9c1.7-3.7,2.5-8.2,2.5-13.1c0-4.9-0.8-9.3-2.5-13C206.3,57.4,203.9,54.4,200.9,52.4z M173.1,56h5.5
					c6.1,0,11.1,1.2,15,3.6c4.2,2.6,6.4,7.4,6.4,14.4c0,7.2-2.2,12.3-6.4,15.1h0c-3.7,2.4-8.7,3.6-14.9,3.6h-5.6V56z"/>
				<path id="XMLID_277_" class="st0" d="M222.6,45.9c-1.7,0-3.1,0.6-4.3,1.8c-1.2,1.1-1.8,2.6-1.8,4.2c0,1.7,0.6,3.1,1.8,4.3
					c1.2,1.2,2.6,1.8,4.3,1.8c1.7,0,3.1-0.6,4.3-1.8c1.2-1.2,1.8-2.6,1.8-4.3c0-1.7-0.6-3.1-1.8-4.2
					C225.7,46.5,224.3,45.9,222.6,45.9z"/>
				<rect id="XMLID_276_" x="217.6" y="63" class="st0" width="9.8" height="39.1"/>
				<path id="XMLID_273_" class="st0" d="M263.2,66.3c-3-2.6-6.3-4.2-9.9-4.2c-5.4,0-9.9,1.9-13.4,5.6c-3.5,3.7-5.3,8.4-5.3,14.1
					c0,5.5,1.8,10.2,5.2,14c3.5,3.7,8,5.5,13.5,5.5c3.8,0,7.1-1.1,9.7-3.1V99c0,3.2-0.9,5.8-2.6,7.5c-1.7,1.7-4.1,2.6-7.1,2.6
					c-4.5,0-7.4-1.8-10.9-6.5l-6.7,6.4l0.2,0.3c1.4,2,3.7,4,6.6,5.9c2.9,1.9,6.6,2.8,10.9,2.8c5.8,0,10.6-1.8,14.1-5.4
					c3.5-3.6,5.3-8.4,5.3-14.2V63h-9.7V66.3z M260.6,89.4c-1.7,2-3.9,2.9-6.8,2.9c-2.8,0-5-0.9-6.7-2.9c-1.7-1.9-2.5-4.5-2.5-7.7
					c0-3.2,0.9-5.8,2.5-7.7c1.7-1.9,3.9-2.9,6.7-2.9c2.8,0,5,1,6.8,2.9c1.7,2,2.6,4.6,2.6,7.7C263.2,84.9,262.3,87.5,260.6,89.4z"/>
				<rect id="XMLID_272_" x="281.3" y="63" class="st0" width="9.8" height="39.1"/>
				<path id="XMLID_271_" class="st0" d="M286.3,45.9c-1.7,0-3.1,0.6-4.3,1.8c-1.2,1.1-1.8,2.6-1.8,4.2c0,1.7,0.6,3.1,1.8,4.3
					c1.2,1.2,2.6,1.8,4.3,1.8c1.7,0,3.1-0.6,4.3-1.8c1.2-1.2,1.8-2.6,1.8-4.3c0-1.7-0.6-3.1-1.8-4.2C289.4,46.5,288,45.9,286.3,45.9
					z"/>
				<path id="XMLID_270_" class="st0" d="M312.7,52.5H303V63h-5.6v9h5.6v16.2c0,5.1,1,8.7,3,10.8c2,2.1,5.6,3.2,10.6,3.2
					c1.6,0,3.2-0.1,4.8-0.2l0.4,0v-9l-3.4,0.2c-2.3,0-3.9-0.4-4.7-1.2c-0.8-0.8-1.1-2.6-1.1-5.2V72h9.2v-9h-9.2V52.5z"/>
				<rect id="XMLID_269_" x="368" y="46.6" class="st0" width="9.8" height="55.5"/>
				<path id="XMLID_268_" class="st0" d="M477.3,88.2c-1.8,2-3.6,3.7-4.9,4.6v0c-1.4,0.9-3.1,1.3-5.1,1.3c-2.9,0-5.2-1.1-7.1-3.2
					c-1.9-2.2-2.8-4.9-2.8-8.3s0.9-6.1,2.8-8.2c1.9-2.2,4.2-3.2,7.1-3.2c3.2,0,6.5,2,9.4,5.4l6.5-6.2l0,0c-4.2-5.5-9.7-8.1-16.1-8.1
					c-5.4,0-10.1,2-13.9,5.8c-3.8,3.9-5.7,8.8-5.7,14.6s1.9,10.7,5.7,14.6c3.8,3.9,8.5,5.9,13.9,5.9c7.1,0,12.9-3.1,16.8-8.7
					L477.3,88.2z"/>
				<path id="XMLID_265_" class="st0" d="M517.7,68.5c-1.4-1.9-3.3-3.5-5.7-4.7c-2.3-1.1-5.1-1.7-8.1-1.7c-5.5,0-10,2-13.4,6
					c-3.3,4-4.9,8.9-4.9,14.7c0,5.9,1.8,10.8,5.4,14.6c3.6,3.7,8.4,5.6,14.2,5.6c6.6,0,12.1-2.7,16.2-8l0.2-0.3l-6.4-6.2l0,0
					c-0.6,0.7-1.4,1.5-2.2,2.3c-1,0.9-1.9,1.6-2.9,2.1c-1.5,0.7-3.1,1.1-5,1.1c-2.7,0-5-0.8-6.7-2.4c-1.6-1.5-2.6-3.5-2.8-5.9h26.1
					l0.1-3.6c0-2.5-0.3-5-1-7.3C520.1,72.6,519.1,70.4,517.7,68.5z M496.2,77.7c0.5-1.9,1.3-3.4,2.6-4.6c1.3-1.3,3.1-2,5.2-2
					c2.4,0,4.2,0.7,5.5,2c1.2,1.2,1.8,2.8,2,4.6H496.2z"/>
				<path id="XMLID_262_" class="st0" d="M555.5,66L555.5,66c-3-2.5-7.1-3.8-12.3-3.8c-3.3,0-6.3,0.7-9.1,2.1
					c-2.6,1.3-5.1,3.5-6.7,6.3l0.1,0.1l6.3,6c2.6-4.1,5.5-5.6,9.3-5.6c2.1,0,3.8,0.6,5.1,1.6c1.3,1.1,1.9,2.5,1.9,4.2v1.9
					c-2.4-0.7-4.9-1.1-7.2-1.1c-4.9,0-8.9,1.2-11.8,3.4c-3,2.3-4.5,5.6-4.5,9.8c0,3.7,1.3,6.7,3.8,8.9c2.6,2.1,5.8,3.2,9.5,3.2
					c3.7,0,7.3-1.5,10.4-4.1v3.2h9.7V77C560,72.2,558.5,68.5,555.5,66z M538,87.2c1.1-0.8,2.7-1.2,4.7-1.2c2.4,0,4.9,0.5,7.5,1.4
					v3.8c-2.1,2-5,3-8.5,3c-1.7,0-3-0.4-3.9-1.1c-0.9-0.7-1.3-1.7-1.3-2.8C536.4,89,536.9,88,538,87.2z"/>
				<path id="XMLID_261_" class="st0" d="M597.9,66.7c-2.7-3.1-6.6-4.6-11.5-4.6c-3.9,0-7.1,1.1-9.4,3.3V63h-9.7v39.1h9.8V80.6
					c0-3,0.7-5.3,2.1-7c1.4-1.7,3.3-2.5,5.8-2.5c2.2,0,3.9,0.7,5.2,2.2c1.3,1.5,1.9,3.6,1.9,6.2v22.7h9.8V79.5
					C602,74.1,600.6,69.8,597.9,66.7z"/>
				<path id="XMLID_258_" class="st0" d="M355.6,66L355.6,66c-3-2.5-7.1-3.8-12.3-3.8c-3.3,0-6.3,0.7-9.1,2.1
					c-2.6,1.3-5.1,3.5-6.7,6.3l0.1,0.1l6.3,6c2.6-4.1,5.5-5.6,9.3-5.6c2.1,0,3.8,0.6,5.1,1.6c1.3,1.1,1.9,2.5,1.9,4.2v1.9
					c-2.4-0.7-4.9-1.1-7.2-1.1c-4.9,0-8.9,1.2-11.8,3.4c-3,2.3-4.5,5.6-4.5,9.8c0,3.7,1.3,6.7,3.8,8.9c2.6,2.1,5.8,3.2,9.5,3.2
					c3.7,0,7.3-1.5,10.4-4.1v3.2h9.7V77C360.2,72.2,358.7,68.5,355.6,66z M338.2,87.2c1.1-0.8,2.7-1.2,4.7-1.2
					c2.4,0,4.9,0.5,7.5,1.4v3.8c-2.1,2-5,3-8.5,3c-1.7,0-3-0.4-3.9-1.1c-0.9-0.7-1.3-1.7-1.3-2.8C336.6,89,337.1,88,338.2,87.2z"/>
				<path id="XMLID_255_" class="st0" d="M413.6,103c-15.8,0-28.6-12.8-28.6-28.6s12.8-28.6,28.6-28.6s28.6,12.8,28.6,28.6
					S429.4,103,413.6,103z M413.6,55.8c-10.2,0-18.5,8.3-18.5,18.5s8.3,18.5,18.5,18.5s18.5-8.3,18.5-18.5S423.8,55.8,413.6,55.8z"
					/>
			</g>
		</g>
	</g>
</g>
</svg>
