<svg width="452" height="151" viewBox="0 0 452 151" fill="none" xmlns="http://www.w3.org/2000/svg">
  <g clip-path="url(#clip0_177_106)">
    <path
      d="M193.468 78.927C193.468 100.308 176.742 116.063 156.215 116.063C135.689 116.063 118.962 100.308 118.962 78.927C118.962 57.3955 135.689 41.7911 156.215 41.7911C176.742 41.7911 193.468 57.3955 193.468 78.927ZM177.161 78.927C177.161 65.5661 167.467 56.4244 156.215 56.4244C144.964 56.4244 135.27 65.5661 135.27 78.927C135.27 92.1539 144.964 101.429 156.215 101.429C167.467 101.429 177.161 92.1371 177.161 78.927Z"
      fill="#09090b" />
    <path
      d="M273.835 78.927C273.835 100.308 257.108 116.063 236.582 116.063C216.055 116.063 199.328 100.308 199.328 78.927C199.328 57.4123 216.055 41.7911 236.582 41.7911C257.108 41.7911 273.835 57.3955 273.835 78.927ZM257.527 78.927C257.527 65.5661 247.833 56.4244 236.582 56.4244C225.33 56.4244 215.636 65.5661 215.636 78.927C215.636 92.1539 225.33 101.429 236.582 101.429C247.833 101.429 257.527 92.1371 257.527 78.927Z"
      fill="#09090b" />
    <path
      d="M350.852 44.0347V110.705C350.852 138.13 334.678 149.331 315.558 149.331C297.559 149.331 286.727 137.293 282.641 127.448L296.839 121.538C299.368 127.582 305.562 134.714 315.541 134.714C327.78 134.714 335.365 127.163 335.365 112.949V107.608H334.796C331.146 112.111 324.114 116.046 315.24 116.046C296.672 116.046 279.661 99.8723 279.661 79.0609C279.661 58.0987 296.672 41.7911 315.24 41.7911C324.097 41.7911 331.129 45.7257 334.796 50.0956H335.365V44.0514H350.852V44.0347ZM336.52 79.0609C336.52 65.9846 327.797 56.4244 316.696 56.4244C305.445 56.4244 296.019 65.9846 296.019 79.0609C296.019 92.0032 305.445 101.429 316.696 101.429C327.797 101.429 336.52 92.0032 336.52 79.0609Z"
      fill="#09090b" />
    <path d="M376.385 4.95665V113.786H360.479V4.95665H376.385Z" fill="#09090b" />
    <path
      d="M438.367 91.1493L451.025 99.5877C446.94 105.632 437.095 116.046 420.084 116.046C398.988 116.046 383.233 99.7384 383.233 78.9102C383.233 56.8263 399.122 41.7744 418.259 41.7744C437.53 41.7744 446.957 57.1109 450.037 65.3986L451.728 69.6179L402.085 90.1782C405.886 97.6288 411.796 101.429 420.084 101.429C428.389 101.429 434.148 97.3442 438.367 91.1493ZM399.407 77.7884L432.591 64.009C430.766 59.3712 425.274 56.1398 418.812 56.1398C410.524 56.1398 398.988 63.4565 399.407 77.7884Z"
      fill="#09090b" />
    <path
      d="M58.7548 69.2663V53.5112H111.847C112.366 56.257 112.634 59.5051 112.634 63.0211C112.634 74.8417 109.402 89.4583 98.9881 99.8724C88.8586 110.42 75.9163 116.046 58.7715 116.046C26.9935 116.046 0.271729 90.1615 0.271729 58.3834C0.271729 26.6053 26.9935 0.72068 58.7715 0.72068C76.3516 0.72068 88.8753 7.61877 98.2849 16.6097L87.1676 27.7271C80.4202 21.3982 71.2785 16.4758 58.7548 16.4758C35.5491 16.4758 17.3997 35.1776 17.3997 58.3834C17.3997 81.5891 35.5491 100.291 58.7548 100.291C73.8067 100.291 82.3791 94.2467 87.8708 88.755C92.3244 84.3014 95.2544 77.9391 96.4097 69.2495L58.7548 69.2663Z"
      fill="#09090b" />
  </g>
  <defs>
    <clipPath id="clip0_177_106">
      <rect width="451.667" height="150" fill="#09090b" transform="translate(0.166702 0.0258408)" />
    </clipPath>
  </defs>
</svg>