<?xml version="1.0" encoding="UTF-8" standalone="no"?>
<svg
   xmlns:dc="http://purl.org/dc/elements/1.1/"
   xmlns:cc="http://creativecommons.org/ns#"
   xmlns:rdf="http://www.w3.org/1999/02/22-rdf-syntax-ns#"
   xmlns:svg="http://www.w3.org/2000/svg"
   xmlns="http://www.w3.org/2000/svg"
   viewBox="0 0 5383.6665 2699.3467"
   height="2699.3467"
   width="5383.6665"
   xml:space="preserve"
   id="svg2"
   version="1.1"><metadata
     id="metadata8"><rdf:RDF><cc:Work
         rdf:about=""><dc:format>image/svg+xml</dc:format><dc:type
           rdf:resource="http://purl.org/dc/dcmitype/StillImage" /></cc:Work></rdf:RDF></metadata><defs
     id="defs6" /><g
     transform="matrix(1.3333333,0,0,-1.3333333,0,2699.3467)"
     id="g10"><g
       transform="scale(0.1)"
       id="g12"><g
         transform="scale(1.00829)"
         id="g14"><path
           id="path16"
           style="fill:#ffffff;fill-opacity:1;fill-rule:evenodd;stroke:none"
           d="m 11391,16300 h 3074.8 c 977.9,0 1778.1,-800.1 1778.1,-1778.2 V 9409.48 c 0,-977.89 -800.2,-1778.15 -1778.1,-1778.15 H 11391 c -977.9,0 -1778.17,800.26 -1778.17,1778.15 v 5112.32 c 0,978.1 800.27,1778.2 1778.17,1778.2 v 0" /></g><g
         transform="scale(1.24202)"
         id="g18"><path
           id="path20"
           style="fill:#cce86e;fill-opacity:1;fill-rule:evenodd;stroke:none"
           d="m 9247.4,13232.6 h 2496.1 c 793.9,0 1443.5,-649.7 1443.5,-1443.6 V 7638.74 c 0,-793.87 -649.6,-1443.53 -1443.5,-1443.53 H 9247.4 c -793.95,0 -1443.61,649.66 -1443.61,1443.53 V 11789 c 0,793.9 649.66,1443.6 1443.61,1443.6 z M 12645.7,0 H 8345.17 C 7716.61,0 7202.35,514.404 7202.35,1142.89 V 13743.8 c 0,628.5 514.26,1142.8 1142.82,1142.8 h 4300.53 c 51,0 101.1,-3.4 150.4,-10 v 927.3 c 0,272.9 223.3,496.2 496.2,496.2 v 0 c 272.9,0 496.2,-223.3 496.2,-496.2 V 14240 c 0,-69.3 -14.5,-135.5 -40.5,-195.6 26.4,-95.9 40.5,-196.7 40.5,-300.6 V 1142.89 C 13788.5,514.404 13274.3,0 12645.7,0 v 0" /></g><g
         transform="scale(1.44826)"
         id="g22"><path
           id="path24"
           style="fill:#80cc28;fill-opacity:1;fill-rule:evenodd;stroke:none"
           d="m 13956,10534.4 c 581,83.3 1027,-78.2 1057.4,-993 -19.2,-816.72 -453.3,-1023.4 -1057.4,-980.07 v 1973.07 z m -1264.2,587.2 2353.6,9.1 c 858.1,-109 1254.6,-751.2 1218.6,-1685.59 -65.4,-941.74 -599.3,-1402.05 -1490.9,-1482.76 l -854.4,17 24,-2583.44 h -1250.9 v 5725.69 0" /></g><g
         transform="scale(1.78599)"
         id="g26"><path
           id="path28"
           style="fill:#80cc28;fill-opacity:1;fill-rule:evenodd;stroke:none"
           d="m 14961.1,9076.13 1208.3,5.52 -9,-518.6 -946.5,4.24 c -546.1,-101.44 -423.8,-684.02 -450.3,-1105 l 1273.3,23.84 4.4,-636.55 -1233.6,13.11 -6,-1541.49 c 48.5,-399.61 258.8,-600.62 613.9,-623.91 l 677.8,7.45 206.6,-4.48 -6.4,-481.25 -211.7,-8.06 -1288.1,13.71 c -443.9,15.01 -802.3,235.17 -967.2,919.55 l -31.6,2990.57 c 18.1,613.12 423,913.79 1166.1,941.35 v 0" /></g><g
         transform="scale(2.14255)"
         id="g30"><path
           id="path32"
           style="fill:#80cc28;fill-opacity:1;fill-rule:evenodd;stroke:none"
           d="m 13848.4,6471.64 c -63.5,835.05 401.8,1023.67 967.6,1089.6 662.3,39.23 1078.2,-236.95 1159.3,-941.58 l -781.8,2.12 c -49.5,355.43 -326,492.02 -579,322.88 -360.7,-441.21 764.8,-1217.67 1102.2,-1505.63 583.3,-461.33 484.5,-1739.98 -413.9,-1977.04 l -547.8,-19.46 c -556.5,-13.12 -887.7,338.33 -983.5,989.94 l 787.7,13.91 c 42.9,-278.27 161.6,-451.24 413.7,-438.92 392.2,74.49 500.1,419.78 221.1,860.42 -583.9,495.9 -1275.4,961.08 -1345.6,1603.76 v 0" /></g><g
         transform="scale(1.02577)"
         id="g34"><path
           id="path36"
           style="fill:#80cc28;fill-opacity:1;fill-rule:evenodd;stroke:none"
           d="m 0,16066.4 h 1729.37 l 18.18,-537.1 c 1045.03,451.6 1833.09,770.7 2658.58,27.3 1475.97,697 2592.14,617.6 3145.6,-676 l 77.06,-7262.25 H 5884.94 v 6927.15 c -129.11,593 -598.64,694.4 -1165.25,655.4 V 7618.35 H 2935.38 v 6927.15 c -129.09,593 -598.64,694.4 -1165.21,655.4 V 7618.35 H 0 v 8448.05 0" /></g><g
         transform="scale(2.47715)"
         id="g38"><path
           id="path40"
           style="fill:#80cc28;fill-opacity:1;fill-rule:evenodd;stroke:none"
           d="m 14961.8,5894.04 c 24.5,197.18 88.6,276.57 305.3,297.82 219.8,-5.68 298,-132.5 312.9,-327.96 v -535.31 h -618.2 v 565.45 z m -742.7,-2827.25 h 742.7 V 4913.93 H 15580 V 3066.79 h 720 v 2638.77 c -14.4,536.29 -426.6,872.36 -1010.3,874.59 -665.9,5.87 -1045.6,-309.93 -1070.6,-844.42 v -2668.94 0" /></g><path
         id="path42"
         style="fill:#7f1d1e;fill-opacity:1;fill-rule:evenodd;stroke:none"
         d="m 11121.2,12947.5 c 306.7,-717.5 724.2,-1047.3 1230.1,-1067.4 -788.9,-589.3 -1642.3,-947.5 -2531.97,-1176.2 -558.69,35.8 -1093.01,178 -1611.67,320 1310.51,258.7 2287.74,893 2913.54,1923.6 v 0" /><path
         id="path44"
         style="fill:none;stroke:#cd7f4b;stroke-width:17.15679932;stroke-linecap:butt;stroke-linejoin:miter;stroke-miterlimit:2.61313009;stroke-dasharray:none;stroke-opacity:1"
         d="m 11121.2,12947.5 c 306.7,-717.5 724.2,-1047.3 1230.1,-1067.4 -788.9,-589.3 -1642.3,-947.5 -2531.97,-1176.2 -558.69,35.8 -1093.01,178 -1611.67,320 1310.51,258.7 2287.74,893 2913.54,1923.6 z" /><g
         transform="scale(1.11997)"
         id="g46"><path
           id="path48"
           style="fill:#ec1d27;fill-opacity:1;fill-rule:evenodd;stroke:none"
           d="M 12998.2,13211.5 16300,11543.9 C 14618.4,9331.45 11782.8,9273.24 8762.58,9559.48 10781.7,10057 12179.7,11290.9 12998.2,13211.5 v 0" /></g><g
         transform="scale(1.11997)"
         id="g50"><path
           id="path52"
           style="fill:none;stroke:#cd7f4b;stroke-width:15.31900024;stroke-linecap:butt;stroke-linejoin:miter;stroke-miterlimit:2.61313009;stroke-dasharray:none;stroke-opacity:1"
           d="M 12998.2,13211.5 16300,11543.9 C 14618.4,9331.45 11782.8,9273.24 8762.58,9559.48 10781.7,10057 12179.7,11290.9 12998.2,13211.5 Z" /></g></g></g></svg>