<svg width="731" height="151" viewBox="0 0 731 151" fill="none" xmlns="http://www.w3.org/2000/svg">
<g clip-path="url(#clip0_450_96)">
<path d="M189.619 80.681C189.619 91.7425 192.992 100.61 199.738 107.294C206.484 113.974 215.605 117.318 227.106 117.318C238.606 117.318 246.345 114.497 252.098 108.851C257.846 103.162 260.722 96.5725 260.722 89.0773V88.4027H244.084V89.0112C244.084 92.0348 242.769 94.6293 240.144 96.7991C237.518 98.9639 233.128 100.049 226.968 100.049C220.043 100.049 214.971 98.3554 211.754 94.9687C208.537 91.5819 206.934 87.0677 206.934 81.4265V77.7706C206.934 72.1293 208.566 67.6152 211.825 64.2284C215.085 60.8416 220.132 59.1483 226.968 59.1483C232.943 59.1483 237.291 60.1857 240.007 62.2614C242.769 64.3366 244.151 66.9547 244.151 70.1149V70.7943H260.788L260.722 69.9122C260.453 62.3745 257.505 55.8272 251.895 50.2756C246.279 44.6765 238.019 41.8792 227.106 41.8792C215.605 41.8792 206.484 45.2189 199.738 51.9029C192.992 58.5398 189.619 67.4076 189.619 78.5161V80.681Z" fill="white"/>
<path d="M274.711 115.284H291.69V80.1146C291.69 72.4119 295.403 68.426 298.478 66.2607C301.558 64.0484 305.068 62.9449 309.004 62.9449C310.225 62.9449 311.336 63.011 312.33 63.1476C313.371 63.2842 314.345 63.4399 315.249 63.6195V42.8976C314.795 42.7184 314.005 42.5157 312.874 42.2891C311.786 42.0629 310.721 41.9493 309.681 41.9493C305.65 41.9493 302.05 43.0342 298.88 45.1995C296.028 47.1523 293.724 49.4493 291.969 52.1003C291.789 52.3739 291.358 52.2608 291.34 51.9304L289.854 43.9119H274.706V115.284H274.711Z" fill="white"/>
<path d="M322.184 80.681C322.184 91.7425 325.694 100.61 332.71 107.294C339.726 113.974 348.965 117.318 360.418 117.318C371.871 117.318 381.039 113.978 388.06 107.294C395.123 100.615 398.652 91.7425 398.652 80.681V78.5161C398.652 67.412 395.118 58.5398 388.06 51.9029C381.044 45.2234 371.829 41.8792 360.418 41.8792C349.008 41.8792 339.726 45.2189 332.71 51.9029C325.694 58.5398 322.184 67.4076 322.184 78.5161V80.681ZM339.504 77.7706C339.504 71.5869 341.315 67.0727 344.934 64.2284C348.558 61.3841 353.719 59.9639 360.418 59.9639C367.117 59.9639 372.212 61.3841 375.836 64.2284C379.502 67.0727 381.337 71.5869 381.337 77.7706V81.4265C381.337 87.8368 379.526 92.417 375.907 95.1718C372.33 97.8791 367.169 99.2331 360.423 99.2331C353.677 99.2331 348.492 97.8791 344.873 95.1718C341.296 92.417 339.508 87.8368 339.508 81.4265V77.7706H339.504Z" fill="white"/>
<path d="M406.367 43.9071L427.695 115.28H447.009L462.155 63.4545C462.313 62.8979 463.103 62.8886 463.278 63.4448L479.611 115.289H498.913L520.371 43.9168H499.371L488.778 83.6668C488.323 85.4733 487.894 87.2563 487.484 89.0158C487.253 90.1241 486.868 91.8836 486.625 92.9968C486.572 93.2421 486.219 93.247 486.163 92.9968C485.863 91.7235 485.534 90.3933 485.178 89.0109C484.723 87.2044 484.225 85.4214 483.682 83.662L471.864 43.912H451.764C451.764 43.912 439.894 84.459 437.709 92.5395C437.615 92.8886 437.117 92.8837 437.028 92.5347L424.736 43.912H406.375L406.367 43.9071Z" fill="white"/>
<path d="M525.917 80.6818C525.917 91.243 528.795 99.8891 534.54 106.616C540.337 113.295 548.372 116.639 558.653 116.639C563.996 116.639 568.614 115.667 572.506 113.729C575.21 112.365 578.684 109.295 580.594 107.507C581.372 110.79 582.422 115.285 582.422 115.285H599.246V11.4788H581.538V52.5118C579.276 49.3512 576.284 46.9127 572.571 45.2003C568.861 43.4408 564.353 42.5591 559.063 42.5591C549.098 42.5591 541.083 45.9223 535.018 52.6484C528.949 59.3279 525.917 67.9504 525.917 78.5165V80.6818ZM543.236 81.356L543.171 77.8371C543.171 72.6908 544.756 68.5354 547.918 65.3798C551.088 62.1771 556.006 60.5733 562.663 60.5733C567.321 60.5733 571.286 61.6581 574.545 63.823C574.578 63.8465 574.61 63.8656 574.642 63.8891C579.001 66.8185 581.538 71.7852 581.538 77.0258V81.9316C581.538 87.3183 578.855 92.4033 574.31 95.3137C574.273 95.3372 574.237 95.3562 574.205 95.3798C570.718 97.5446 566.688 98.6299 562.115 98.6299C555.414 98.6299 550.594 97.0261 547.651 93.823C544.707 90.6203 543.236 86.4645 543.236 81.3657V81.356Z" fill="white"/>
<path d="M619.363 115.285H636.272V43.9128H619.363V115.285ZM615.767 24.4126C615.767 27.4834 616.809 30.0117 618.888 31.9975C621.021 33.9409 624.005 34.9079 627.852 34.9079C631.703 34.9079 634.598 33.9126 636.682 31.9268C638.81 29.9409 639.872 27.4362 639.872 24.4126C639.872 21.3891 638.83 18.9503 636.746 16.9645C634.667 14.9787 631.679 13.9834 627.783 13.9834C623.887 13.9834 621.021 14.9787 618.888 16.9645C616.809 18.9503 615.767 21.4315 615.767 24.4126Z" fill="white"/>
<path d="M656.786 115.285H673.695V86.3319C673.695 69.9406 679.505 59.5585 692.165 59.5585C704.826 59.5585 707.518 66.8931 707.518 77.2046V115.285H724.424V72.9641C724.424 60.8226 721.934 52.7189 716.956 48.6527C711.974 44.5443 705.613 42.4922 697.869 42.4922C692.757 42.4922 688.026 43.4404 683.676 45.3365C679.764 47.0206 676.582 49.4121 674.133 52.5158C673.926 51.4168 672.811 43.9168 672.811 43.9168H656.786V115.29V115.285Z" fill="white"/>
<path d="M105.176 150.245H47.5955C17.7228 150.245 0.896423 133.212 0.896423 103.848V46.6407C0.896423 17.277 17.7228 0.244507 47.5955 0.244507H105.176C135.676 0.244507 151.875 16.6535 151.875 46.6407V103.848C151.875 133.835 135.676 150.245 105.176 150.245Z" fill="white"/>
<path d="M97.8937 102.44C95.0688 102.44 92.5517 101.569 90.4679 99.8627C87.9787 97.8544 85.9999 94.8592 85.9302 91.3391C85.8949 89.5606 87.776 89.5606 87.776 89.5606C87.776 89.5606 90.8315 89.5249 92.3137 89.5249C93.7963 89.5606 94.2296 91.6845 94.2994 92.2172C94.873 96.9904 97.4948 99.071 99.5088 100.021C100.718 100.59 100.418 102.368 97.8937 102.447V102.44Z" fill="#263238"/>
<path d="M72.5271 78.1857C70.0379 77.8837 66.3459 77.6243 63.9617 77.0198C60.0949 76.0407 60.1999 72.4626 60.3678 71.2963C60.8364 67.7976 62.081 64.558 63.9966 61.5487C66.3808 57.8628 69.8072 54.6232 74.212 51.988C82.4766 47.0567 94.0347 44.3068 106.732 44.3068C116.038 44.3068 125.751 45.5522 125.848 45.5522C126.723 45.6674 127.359 46.5313 127.324 47.5103C127.289 48.4894 126.618 49.2382 125.743 49.3172C124.331 49.2811 122.954 49.2811 121.646 49.2811C108.711 49.2811 99.5024 51.0884 92.6502 55.0047C85.8958 58.8418 81.1902 64.7161 78.0017 73.4129C77.666 74.1686 76.5544 78.6467 72.5271 78.193V78.1857Z" fill="#263238"/>
<path d="M83.8115 114.074C77.3927 114.211 71.3445 111.223 66.7646 106.011C62.8841 101.598 60.549 97.1485 60.1152 91.4396C59.8496 87.7107 61.451 86.4219 63.6252 86.6453C65.1288 86.7961 69.8064 87.0268 72.4841 87.5956C74.4909 88.0131 75.8267 89.1576 76.1619 91.5118C77.9311 104.067 85.6225 109.006 90.2023 110.071C91.0063 110.259 91.5029 110.791 91.4749 111.749C91.4396 112.663 90.9292 113.916 83.8184 114.067L83.8115 114.074Z" fill="#263238"/>
<path d="M65.5266 125.219C60.9747 125.413 56.5209 124.47 55.2483 124.24C49.8925 123.261 45.4035 121.569 41.5578 119.057C32.3492 113.053 26.7906 102.448 26.1263 89.8926C25.9585 86.9125 25.5879 81.2178 32.4891 81.6499C35.3348 81.808 39.8517 83.2192 43.033 84.1622C46.9837 85.2998 48.8924 88.4384 48.8924 91.5414C48.8924 109.244 64.464 120.943 71.2602 120.943C72.8822 120.943 73.267 121.936 73.0712 122.887C72.9171 123.643 72.5048 124.924 65.5335 125.226L65.5266 125.219Z" fill="#263238"/>
<path d="M41.7743 73.196C39.0822 72.6994 36.4532 71.5549 33.8941 70.8998C25.9791 68.8768 27.3286 60.6552 28.0697 58.402C35.2716 36.574 58.1356 29.2741 76.5877 27.3231C93.9629 25.4873 112.143 26.9056 129.077 31.7578C130.287 32.089 133.622 32.9169 132.902 34.9326C132.182 36.9484 130.175 35.5446 111.702 35.127C105.612 34.9902 99.5287 35.3862 93.4245 36.3509C82.9505 37.9923 72.1825 41.3976 63.5263 48.5822C59.3523 52.0594 55.6813 56.4941 53.2274 61.7352C52.584 63.1103 52.0805 64.4851 51.6471 65.8602C51.2064 67.3144 49.5564 74.6145 41.7812 73.2033L41.7743 73.196Z" fill="#263238"/>
<path d="M86.0697 77.4094C87.5518 70.5771 94.1384 59.7495 114.527 60.4983C119.205 60.6495 117.065 63.9325 114.758 63.8603C103.228 63.4501 97.7603 71.1029 94.8933 78.8636C93.9706 81.3617 91.8657 81.7359 89.2298 81.2895C87.384 80.951 85.3772 80.728 86.0697 77.4094Z" fill="#263238"/>
</g>
<defs>
<clipPath id="clip0_450_96">
<rect width="729.73" height="150" fill="white" transform="translate(0.896423 0.244507)"/>
</clipPath>
</defs>
</svg>
