<svg width="730" height="151" viewBox="0 0 730 151" fill="none" xmlns="http://www.w3.org/2000/svg">
<g clip-path="url(#clip0_450_81)">
<path d="M188.89 81.5672C188.89 92.7163 192.303 101.654 199.123 108.394C205.95 115.127 215.173 118.497 226.807 118.497C238.442 118.497 246.271 115.65 252.088 109.963C257.905 104.233 260.814 97.5844 260.814 90.0317V89.3461H243.981V89.9607C243.981 93.0061 242.651 95.6271 239.999 97.8102C237.339 99.9933 232.902 101.089 226.672 101.089C219.668 101.089 214.533 99.3787 211.284 95.9664C208.033 92.5537 206.405 88.0038 206.405 82.3164V78.6284C206.405 72.9406 208.055 68.3907 211.355 64.9784C214.654 61.5657 219.76 59.8561 226.672 59.8561C232.717 59.8561 237.112 60.9017 239.864 62.9932C242.659 65.0842 244.053 67.7267 244.053 70.9132V71.5983H260.885L260.814 70.708C260.536 63.1059 257.564 56.5144 251.882 50.9113C246.2 45.2664 237.844 42.4472 226.807 42.4472C215.173 42.4472 205.943 45.8173 199.123 52.5507C192.296 59.2415 188.89 68.1787 188.89 79.3772V81.5603V81.5672Z" fill="#263238"/>
<path d="M274.972 116.448H292.146V80.9948C292.146 73.2304 295.901 69.2173 299.015 67.0269C302.13 64.7944 305.679 63.6852 309.661 63.6852C310.898 63.6852 312.022 63.7557 313.025 63.8899C314.077 64.0245 315.066 64.1866 315.976 64.3707V43.4858C315.521 43.3022 314.717 43.0971 313.572 42.8712C312.47 42.645 311.396 42.5319 310.344 42.5319C306.269 42.5319 302.628 43.6269 299.421 45.81C296.533 47.7742 294.201 50.0988 292.43 52.7623C292.245 53.038 291.812 52.9249 291.79 52.5929L290.29 44.5103H274.965V116.448H274.972Z" fill="#263238"/>
<path d="M322.995 81.5672C322.995 92.7163 326.543 101.654 333.64 108.394C340.737 115.127 350.081 118.497 361.673 118.497C373.264 118.497 382.537 115.127 389.634 108.394C396.781 101.661 400.351 92.7163 400.351 81.5672V79.3841C400.351 68.1929 396.781 59.2484 389.634 52.5576C382.537 45.8242 373.215 42.4541 361.673 42.4541C350.131 42.4541 340.744 45.8242 333.64 52.5576C326.543 59.2484 322.995 68.1856 322.995 79.3841V81.5672ZM340.51 78.6353C340.51 72.4038 342.344 67.8536 346.007 64.9853C349.669 62.1167 354.889 60.6823 361.673 60.6823C368.457 60.6823 373.606 62.1167 377.268 64.9853C380.98 67.8536 382.836 72.4038 382.836 78.6353V82.3233C382.836 88.7879 381.001 93.4014 377.339 96.178C373.719 98.9052 368.5 100.276 361.673 100.276C354.846 100.276 349.605 98.9125 345.943 96.178C342.323 93.4014 340.517 88.781 340.517 82.3233V78.6353H340.51Z" fill="#263238"/>
<path d="M408.151 44.4957L429.722 116.434H449.255L464.575 64.1936C464.737 63.6353 465.532 63.6211 465.71 64.1794L482.23 116.434H501.759L523.468 44.4957H502.229L491.51 84.5628C491.056 86.3855 490.614 88.1798 490.205 89.9534C489.969 91.0695 489.576 92.8432 489.329 93.9665C489.272 94.2138 488.915 94.2207 488.859 93.9665C488.555 92.6806 488.226 91.3452 487.861 89.9461C487.407 88.1234 486.905 86.3287 486.349 84.5555L474.394 44.4888H454.055C454.055 44.4888 442.051 85.361 439.833 93.5072C439.74 93.8603 439.237 93.8534 439.144 93.5072L426.714 44.4957H408.138H408.151Z" fill="#263238"/>
<path d="M529.094 81.5672C529.094 92.2144 532.001 100.926 537.818 107.709C543.676 114.442 551.813 117.812 562.211 117.812C567.616 117.812 572.286 116.837 576.218 114.88C578.959 113.502 582.47 110.414 584.403 108.613C585.194 111.919 586.252 116.455 586.252 116.455H603.279V11.8123H585.356V53.1722C583.07 49.9857 580.045 47.5269 576.291 45.8032C572.537 44.0295 567.976 43.1397 562.621 43.1397C552.547 43.1397 544.439 46.5309 538.301 53.3064C532.167 60.0394 529.094 68.7297 529.094 79.3768V81.5599V81.5672ZM546.616 82.2524L546.551 78.7059C546.551 73.5199 548.152 69.3301 551.359 66.144C554.566 62.9149 559.536 61.2969 566.27 61.2969C570.984 61.2969 574.998 62.3924 578.29 64.5755C578.326 64.5965 578.355 64.6176 578.387 64.6387C582.798 67.5921 585.364 72.5944 585.364 77.8792V82.8248C585.364 88.258 582.656 93.3803 578.055 96.3122C578.018 96.3333 577.982 96.3548 577.949 96.3759C574.422 98.559 570.344 99.654 565.722 99.654C558.94 99.654 554.067 98.036 551.087 94.8074C548.107 91.5787 546.624 87.3888 546.624 82.2455L546.616 82.2524Z" fill="#263238"/>
<path d="M623.619 116.448H640.728V44.5026H623.619V116.441V116.448ZM619.983 24.8473C619.983 27.9418 621.037 30.4924 623.141 32.4918C625.298 34.4489 628.314 35.4239 632.21 35.4239C636.106 35.4239 639.037 34.4206 641.141 32.4212C643.294 30.4217 644.368 27.8924 644.368 24.8473C644.368 21.8022 643.318 19.3435 641.206 17.3369C639.098 15.3375 636.078 14.3342 632.137 14.3342C628.196 14.3342 625.298 15.3375 623.141 17.3369C621.037 19.3364 619.983 21.8446 619.983 24.8473Z" fill="#263238"/>
<path d="M661.472 116.448H678.58V87.2688C678.58 70.7502 684.463 60.2798 697.261 60.2798C710.064 60.2798 712.792 67.6768 712.792 78.0629V116.448H729.896V73.7883C729.896 61.5515 727.379 53.3769 722.336 49.286C717.296 45.146 710.867 43.076 703.03 43.076C697.861 43.076 693.073 44.0295 688.671 45.9442C684.718 47.64 681.495 50.0563 679.014 53.1791C678.807 52.0699 677.68 44.5099 677.68 44.5099H661.464V116.448H661.472Z" fill="#263238"/>
<path d="M107.11 150.245H44.2022C17.4663 150.245 0.166702 133.057 0.166702 106.494V43.5159C0.166702 17.432 17.4663 0.244507 43.7202 0.244507H107.11C133.845 0.244507 151.145 17.432 151.145 43.9946V106.494C151.145 133.057 133.845 150.245 107.11 150.245Z" fill="#263238"/>
<path d="M97.1648 102.44C94.3399 102.44 91.8228 101.569 89.7394 99.8627C87.2502 97.8544 85.2714 94.8592 85.2013 91.3391C85.1664 89.5606 87.0471 89.5606 87.0471 89.5606C87.0471 89.5606 90.1026 89.5249 91.5852 89.5249C93.0674 89.5606 93.5008 91.6845 93.5709 92.2172C94.1441 96.9904 96.7663 99.071 98.7799 100.021C99.9897 100.59 99.6889 102.368 97.1648 102.447V102.44Z" fill="white"/>
<path d="M71.7973 78.1858C69.3081 77.8833 65.6161 77.6243 63.2319 77.0194C59.3652 76.0403 59.4702 72.4622 59.638 71.2963C60.1067 67.7972 61.3513 64.5576 63.2668 61.5483C65.651 57.8624 69.0775 54.6228 73.4822 51.988C81.7468 47.0563 94.4125 43.9943 107.11 43.9943C109.463 43.9943 126.594 43.9943 126.594 47.5099C126.594 49.4632 122.638 49.2812 120.916 49.2812C107.981 49.2812 98.7726 51.088 91.9204 55.0043C85.166 58.8414 80.4604 64.7162 77.2719 73.4125C76.9363 74.1686 75.8246 78.6463 71.7973 78.193V78.1858Z" fill="white"/>
<path d="M83.0818 114.073C76.663 114.21 70.6148 111.222 66.0349 106.01C62.1544 101.597 59.8192 97.1477 59.3855 91.4388C59.1199 87.7095 60.7213 86.4211 62.8955 86.6441C64.3991 86.7953 69.0767 87.0256 71.7544 87.5943C73.7611 88.0119 75.097 89.1568 75.4322 91.511C77.2014 104.066 84.8928 109.005 89.4726 110.07C90.2765 110.257 90.7732 110.79 90.7452 111.748C90.7099 112.662 90.1995 113.914 83.0887 114.066L83.0818 114.073Z" fill="white"/>
<path d="M64.7981 125.219C60.2462 125.413 55.792 124.47 54.5194 124.24C49.1636 123.261 44.6745 121.569 40.8289 119.057C31.6205 113.053 26.0618 102.448 25.3975 89.8926C25.2298 86.9125 24.8592 81.2178 31.7603 81.6499C34.6061 81.808 39.123 83.2192 42.3045 84.1622C46.2548 85.2998 48.1639 88.4384 48.1639 91.5414C48.1639 109.244 63.0747 120.558 70.1518 120.558C71.7739 120.558 72.5109 121.08 72.5109 122.12C72.5109 122.902 71.7759 124.924 64.8049 125.226L64.7981 125.219Z" fill="white"/>
<path d="M41.0445 73.1964C38.3525 72.6994 35.7234 71.5549 33.1644 70.8998C25.2493 68.8768 26.5988 60.6552 27.3399 58.402C34.5418 36.574 57.4059 29.2741 75.8579 27.3231C93.2332 25.4873 111.412 26.9056 128.347 31.7578C129.557 32.089 132.892 32.9169 132.172 34.9326C131.452 36.9484 129.445 35.5446 110.972 35.127C104.882 34.9903 98.799 35.3862 92.6948 36.3509C82.2207 37.9923 71.4528 41.3976 62.7965 48.5822C58.6225 52.0594 54.9515 56.4941 52.4972 61.7352C51.8542 63.1103 51.3507 64.4851 50.9174 65.8602C50.4767 67.3144 48.8267 74.6145 41.0514 73.2033L41.0445 73.1964Z" fill="white"/>
<path d="M85.3408 77.409C86.8229 70.5771 92.1698 60.401 112.615 60.401C114.974 60.401 115.76 61.1822 115.76 61.9634C115.76 62.7446 114.66 63.5263 113.401 63.5263C100.978 63.5263 97.0314 71.1025 94.1648 78.8636C93.2417 81.3617 91.1373 81.7359 88.5013 81.2895C86.6555 80.951 84.6487 80.728 85.3408 77.409Z" fill="white"/>
</g>
<defs>
<clipPath id="clip0_450_81">
<rect width="729.73" height="150" fill="white" transform="translate(0.166702 0.244507)"/>
</clipPath>
</defs>
</svg>
