<svg width="708" height="161" viewBox="0 0 708 161" fill="none" xmlns="http://www.w3.org/2000/svg">
<g clip-path="url(#clip0_449_60)">
<path fill-rule="evenodd" clip-rule="evenodd" d="M130.507 80.4344C130.507 90.457 127.596 100.065 122.612 108L142.992 128.473C152.974 115.112 159.21 98.4055 159.21 80.4478C159.21 62.4901 152.974 45.7903 142.992 32.4224L122.612 52.8957C127.832 61.1375 130.575 70.7054 130.513 80.4612L130.507 80.4344Z" fill="#B8D3F4"/>
<path fill-rule="evenodd" clip-rule="evenodd" d="M79.7982 131.377C51.9384 131.377 29.0631 108.408 29.0631 80.4277C29.0631 52.4475 51.9317 29.4785 79.7982 29.4785C90.1955 29.4785 99.3349 32.4023 107.243 37.8284L127.623 17.3551C114.309 7.33251 97.6823 1.07007 79.7982 1.07007C36.1351 1.07007 0.380371 36.5706 0.380371 80.8359C0.380371 125.101 36.1418 160.187 79.7982 160.187C98.0971 160.187 114.723 153.924 127.971 143.902L107.591 123.428C99.6962 128.446 90.1955 131.364 79.7313 131.364L79.7982 131.377Z" fill="#3385FF"/>
<path d="M686.692 93.6351C684.862 93.6496 683.049 93.2727 681.376 92.5296C679.702 91.7865 678.208 90.6943 676.991 89.3263C676.857 89.0587 676.857 88.791 677.125 88.6572L699.759 79.0896L706.363 76.2595C706.63 76.1257 706.63 75.9918 706.63 75.858C705.568 71.2422 702.928 67.1418 699.166 64.2642C695.404 61.3865 690.756 59.9119 686.023 60.0949C675.519 60.4963 666.754 68.9934 666.353 79.4977C666.216 82.2664 666.646 85.0339 667.614 87.6312C668.583 90.2286 670.07 92.6014 671.986 94.6048C673.902 96.6083 676.206 98.2005 678.757 99.2841C681.309 100.368 684.054 100.92 686.826 100.908C695.31 100.908 702.589 95.6556 705.694 88.2491C705.828 87.9815 705.694 87.7138 705.426 87.7138L698.822 86.5095C698.689 86.5095 698.421 86.5095 698.421 86.7771C695.999 90.8183 691.683 93.6484 686.699 93.6484L686.692 93.6351ZM686.692 67.5014C690.6 67.5014 694.099 69.2544 696.394 71.944C696.527 72.2116 696.527 72.4793 696.26 72.6131L674.167 81.98C674.115 82.0019 674.058 82.0123 674 82.0104C673.943 82.0086 673.887 81.9945 673.836 81.9692C673.784 81.9438 673.739 81.9078 673.703 81.8635C673.666 81.8192 673.64 81.7677 673.625 81.7123V80.6351C673.492 73.2286 679.42 67.4345 686.692 67.4345V67.5014ZM665.403 60.764H658.939C658.806 60.764 658.672 60.8978 658.538 61.0316L648.034 91.8085C647.766 92.4776 646.963 92.4776 646.696 91.8085L636.191 61.0316C636.191 60.8978 636.058 60.764 635.79 60.764H629.327C629.059 60.764 628.925 61.0316 628.925 61.2992L642.26 100.092C642.26 100.225 642.394 100.359 642.661 100.359H651.827C651.961 100.359 652.095 100.225 652.229 100.092L665.563 61.2992C665.831 61.0316 665.697 60.764 665.429 60.764H665.403ZM622.85 60.764H616.247C615.979 60.764 615.845 60.8978 615.845 61.1654V99.9577C615.845 100.225 615.979 100.359 616.247 100.359H622.85C623.118 100.359 623.252 100.225 623.252 99.9577V61.2323C623.252 61.0985 623.118 60.8309 622.85 60.8309V60.764ZM622.85 48.1053H616.247C615.979 48.1053 615.845 48.2391 615.845 48.5067V55.1104C615.845 55.378 615.979 55.5118 616.247 55.5118H622.85C623.118 55.5118 623.252 55.378 623.252 55.1104V48.5067C623.252 48.2391 623.118 48.1053 622.85 48.1053ZM609.235 60.764H601.828C601.694 60.764 601.561 60.6301 601.561 60.4963V43.656C601.561 43.3884 601.427 43.2545 601.159 43.2545H594.616C594.348 43.2545 594.214 43.3884 594.214 43.656V60.5632C594.214 60.697 594.08 60.8309 593.947 60.8309H586.674C586.406 60.8309 586.272 60.9647 586.272 61.2323V67.8359C586.272 68.1036 586.406 68.2374 586.674 68.2374H593.947C594.08 68.2374 594.214 68.3712 594.214 68.505V99.951C594.214 100.219 594.348 100.352 594.616 100.352H601.219C601.487 100.352 601.621 100.219 601.621 99.951V68.505C601.621 68.3712 601.755 68.2374 601.888 68.2374H609.295C609.563 68.2374 609.696 68.1036 609.696 67.8359V61.2323C609.696 61.0985 609.429 60.8309 609.295 60.8309L609.235 60.764Z" fill="#0A0A0A"/>
<path d="M565.993 93.6351C564.057 93.6322 562.145 93.2029 560.394 92.3775C558.642 91.5521 557.094 90.351 555.86 88.8595C554.625 87.3681 553.734 85.6229 553.25 83.7482C552.766 81.8734 552.702 79.9151 553.06 78.0124C553.863 73.4293 558.446 68.7124 563.096 67.7757C565.376 67.2523 567.754 67.3512 569.982 68.0621C572.21 68.7731 574.207 70.0699 575.762 71.8169C575.895 71.9507 576.163 71.9507 576.297 71.8169L581.014 67.1C581.148 66.9662 581.148 66.6986 581.014 66.5647C577.106 62.256 571.312 59.6935 564.983 59.9611C554.612 60.4963 545.982 68.9934 545.446 79.3639C544.911 91.0859 554.211 100.774 565.92 100.774C571.848 100.774 577.227 98.2115 581.007 94.1703C581.141 94.0365 581.141 93.9027 581.007 93.7689L576.29 89.052C576.156 88.9182 575.889 88.9182 575.755 89.052C573.467 92.0159 569.961 93.6351 566.053 93.6351H565.993Z" fill="#0A0A0A"/>
<path d="M521.942 93.6351C520.112 93.6496 518.299 93.2727 516.626 92.5296C514.953 91.7865 513.458 90.6943 512.241 89.3263C512.107 89.0586 512.107 88.791 512.375 88.6572L535.009 79.0896L541.613 76.2595C541.88 76.1257 541.88 75.9918 541.88 75.858C540.818 71.2422 538.179 67.1418 534.417 64.2642C530.655 61.3865 526.006 59.9119 521.273 60.0949C510.769 60.4963 502.004 68.9934 501.603 79.4977C501.466 82.2664 501.896 85.0339 502.864 87.6312C503.833 90.2286 505.32 92.6014 507.236 94.6048C509.152 96.6083 511.456 98.2004 514.007 99.2841C516.559 100.368 519.304 100.92 522.076 100.908C530.56 100.908 537.839 95.6556 540.944 88.2491C541.078 87.9815 540.944 87.7138 540.676 87.7138L534.072 86.5095C533.939 86.5095 533.671 86.5095 533.671 86.7771C531.249 90.8183 526.8 93.6484 521.949 93.6484L521.942 93.6351ZM521.942 67.5014C525.85 67.5014 529.349 69.2544 531.644 71.944C531.778 72.2116 531.778 72.4793 531.51 72.6131L509.417 81.98C509.365 82.0019 509.308 82.0123 509.25 82.0104C509.193 82.0086 509.137 81.9945 509.086 81.9692C509.034 81.9438 508.989 81.9078 508.953 81.8635C508.917 81.8192 508.89 81.7676 508.876 81.7123V80.6351C508.742 73.2286 514.67 67.4345 521.942 67.4345V67.5014ZM495.942 43.2545H489.339C489.071 43.2545 488.937 43.3884 488.937 43.656V99.9644C488.937 100.232 489.071 100.366 489.339 100.366H495.942C496.21 100.366 496.344 100.232 496.344 99.9644V43.656C496.344 43.3884 496.076 43.2545 495.942 43.2545ZM481.524 43.2545H474.854C474.586 43.2545 474.452 43.3884 474.452 43.656V99.9644C474.452 100.232 474.586 100.366 474.854 100.366H481.457C481.725 100.366 481.859 100.232 481.859 99.9644V43.656C481.725 43.3884 481.591 43.2545 481.457 43.2545H481.524ZM449.195 67.5014C456.468 67.5014 462.262 73.4293 462.262 80.5682C462.232 84.0246 460.846 87.3309 458.402 89.775C455.958 92.2191 452.651 93.6054 449.195 93.6351C445.739 93.6054 442.432 92.2191 439.988 89.775C437.544 87.3309 436.158 84.0246 436.128 80.5682C436.128 73.4293 441.922 67.5014 449.195 67.5014ZM449.195 60.0949C446.506 60.0949 443.844 60.6244 441.36 61.6533C438.876 62.6822 436.619 64.1903 434.718 66.0914C432.817 67.9925 431.309 70.2495 430.28 72.7334C429.251 75.2174 428.722 77.8796 428.722 80.5682C428.722 83.2568 429.251 85.9191 430.28 88.403C431.309 90.887 432.817 93.144 434.718 95.0451C436.619 96.9462 438.876 98.4543 441.36 99.4831C443.844 100.512 446.506 101.042 449.195 101.042C451.884 101.042 454.546 100.512 457.03 99.4831C459.514 98.4543 461.771 96.9462 463.672 95.0451C465.573 93.144 467.081 90.887 468.11 88.403C469.139 85.9191 469.668 83.2568 469.668 80.5682C469.668 77.8796 469.139 75.2174 468.11 72.7334C467.081 70.2495 465.573 67.9925 463.672 66.0914C461.771 64.1903 459.514 62.6822 457.03 61.6533C454.546 60.6244 451.884 60.0949 449.195 60.0949Z" fill="#0A0A0A"/>
<path d="M411.607 93.6351C409.671 93.6322 407.759 93.2029 406.008 92.3775C404.256 91.5521 402.708 90.351 401.473 88.8595C400.239 87.3681 399.348 85.6229 398.864 83.7482C398.38 81.8734 398.315 79.9151 398.674 78.0124C399.477 73.4293 404.06 68.7124 408.71 67.7757C410.99 67.2523 413.368 67.3512 415.596 68.0621C417.824 68.7731 419.82 70.0699 421.375 71.8169C421.509 71.9507 421.777 71.9507 421.911 71.8169L426.628 67.1C426.761 66.9662 426.761 66.6986 426.628 66.5647C422.72 62.256 416.926 59.6935 410.597 59.9611C400.226 60.4963 391.595 68.9934 391.06 79.3639C390.525 91.0859 399.825 100.774 411.533 100.774C417.461 100.774 422.841 98.2115 426.621 94.1703C426.755 94.0365 426.755 93.9027 426.621 93.7689L421.904 89.052C421.77 88.9182 421.502 88.9182 421.369 89.052C419.08 92.0159 415.575 93.6351 411.667 93.6351H411.607Z" fill="#0A0A0A"/>
<path d="M344.654 60.0949C342.409 60.1896 340.211 60.7684 338.211 61.7915C336.211 62.8147 334.456 64.258 333.066 66.0228C332.932 66.2904 332.397 66.1566 332.397 65.889V61.1721C332.397 61.0383 332.263 60.7706 331.995 60.7706H325.391C325.258 60.7706 324.99 60.9044 324.99 61.1721V100.098C324.99 100.232 325.124 100.5 325.391 100.5H331.995C332.129 100.5 332.397 100.366 332.397 100.098V80.6351C332.397 73.2286 337.381 67.9765 344.52 67.9765C353.887 67.9765 356.777 74.172 356.777 81.4447V100.045C356.777 100.179 356.911 100.446 357.179 100.446H363.782C363.916 100.446 364.184 100.312 364.184 100.045V81.5116C364.318 70.1375 358.932 60.1016 344.647 60.1016L344.654 60.0949ZM301.145 93.6351C299.314 93.6496 297.501 93.2727 295.828 92.5296C294.155 91.7865 292.66 90.6943 291.443 89.3263C291.309 89.0587 291.309 88.791 291.577 88.6572L314.211 79.0896L320.815 76.2595C321.083 76.1257 321.083 75.9918 321.083 75.858C320.02 71.2422 317.381 67.1418 313.619 64.2642C309.857 61.3865 305.208 59.9119 300.475 60.0949C289.971 60.4963 281.206 68.9934 280.805 79.4977C280.669 82.2664 281.098 85.0339 282.066 87.6312C283.035 90.2286 284.522 92.6014 286.438 94.6048C288.354 96.6083 290.658 98.2005 293.209 99.2841C295.761 100.368 298.506 100.92 301.278 100.908C309.762 100.908 317.041 95.6556 320.146 88.2491C320.28 87.9815 320.146 87.7138 319.878 87.7138L313.275 86.5095C313.141 86.5095 312.873 86.5095 312.873 86.7771C310.451 90.8183 306.136 93.6484 301.151 93.6484L301.145 93.6351ZM301.145 67.5014C305.052 67.5014 308.551 69.2544 310.846 71.944C310.98 72.2116 310.98 72.4793 310.712 72.6131L288.62 81.98C288.567 82.0019 288.51 82.0123 288.453 82.0105C288.395 82.0086 288.339 81.9945 288.288 81.9692C288.237 81.9438 288.191 81.9078 288.155 81.8635C288.119 81.8192 288.092 81.7677 288.078 81.7123V80.6351C288.066 78.9097 288.395 77.1989 289.046 75.6009C289.697 74.0029 290.657 72.549 291.871 71.3227C293.085 70.0964 294.529 69.1217 296.12 68.4544C297.712 67.7872 299.419 67.4406 301.145 67.4345V67.5014ZM256.418 59.6935C251.299 59.8273 247.251 61.8478 244.428 65.2132C244.16 65.4808 243.759 65.347 243.759 64.9456V61.1721C243.759 60.9044 243.625 60.7706 243.357 60.7706H236.754C236.486 60.7706 236.352 60.9044 236.352 61.1721V117.614C236.352 117.882 236.486 118.016 236.754 118.016H243.217C243.485 118.016 243.618 117.882 243.618 117.614V95.388C243.618 94.9866 244.02 94.8528 244.287 95.1204C247.118 98.4858 251.293 100.64 256.679 100.64C269.21 100.64 279.172 89.2661 276.75 76.3933C275.131 66.558 266.253 59.5529 256.418 59.6935ZM258.98 93.0998C256.922 93.4421 254.812 93.2883 252.825 92.6512C250.838 92.0141 249.031 90.912 247.556 89.4366C246.081 87.9611 244.978 86.1549 244.341 84.168C243.704 82.181 243.55 80.0707 243.893 78.0124C244.829 72.6264 249.145 68.1772 254.598 67.3074C256.656 66.9651 258.766 67.1189 260.753 67.756C262.74 68.3931 264.547 69.4952 266.022 70.9706C267.497 72.4461 268.599 74.2523 269.237 76.2392C269.874 78.2262 270.027 80.3365 269.685 82.3948C268.882 87.7807 264.433 92.0962 258.98 93.0998ZM212.099 60.0949C209.41 60.0949 206.748 60.6244 204.264 61.6533C201.78 62.6822 199.523 64.1903 197.622 66.0914C195.721 67.9925 194.213 70.2495 193.184 72.7334C192.155 75.2174 191.625 77.8796 191.625 80.5682C191.625 83.2568 192.155 85.9191 193.184 88.403C194.213 90.887 195.721 93.144 197.622 95.0451C199.523 96.9462 201.78 98.4543 204.264 99.4831C206.748 100.512 209.41 101.042 212.099 101.042C217.529 101.042 222.736 98.8846 226.576 95.0451C230.415 91.2056 232.572 85.9981 232.572 80.5682C232.572 75.1384 230.415 69.9309 226.576 66.0914C222.736 62.2519 217.529 60.0949 212.099 60.0949ZM212.099 67.5014C219.372 67.5014 225.166 73.4293 225.166 80.5682C225.136 84.0246 223.75 87.331 221.306 89.775C218.862 92.2191 215.555 93.6054 212.099 93.6351C208.643 93.6054 205.336 92.2191 202.892 89.775C200.448 87.331 199.062 84.0246 199.032 80.5682C199.062 77.1119 200.448 73.8055 202.892 71.3614C205.336 68.9173 208.643 67.5311 212.099 67.5014Z" fill="#0A0A0A"/>
</g>
<defs>
<clipPath id="clip0_449_60">
<rect width="707" height="160" fill="white" transform="translate(0.129395 0.635193)"/>
</clipPath>
</defs>
</svg>
