<svg width="708" height="160" viewBox="0 0 708 160" fill="none" xmlns="http://www.w3.org/2000/svg">
<g clip-path="url(#clip0_449_49)">
<path fill-rule="evenodd" clip-rule="evenodd" d="M130.507 79.8251C130.507 89.8476 127.596 99.4554 122.612 107.39L142.992 127.864C152.974 114.503 159.21 97.7961 159.21 79.8384C159.21 61.8808 152.974 45.1809 142.992 31.813L122.612 52.2864C127.832 60.5281 130.575 70.0961 130.513 79.8518L130.507 79.8251Z" fill="#B8D3F4"/>
<path fill-rule="evenodd" clip-rule="evenodd" d="M79.7982 130.768C51.9384 130.768 29.0631 107.799 29.0631 79.8184C29.0631 51.8381 51.9317 28.8692 79.7982 28.8692C90.1955 28.8692 99.3349 31.793 107.243 37.2191L127.623 16.7457C114.309 6.72315 97.6823 0.460711 79.7982 0.460711C36.1351 0.460711 0.380371 35.9612 0.380371 80.2265C0.380371 124.492 36.1418 159.577 79.7982 159.577C98.0971 159.577 114.723 153.315 127.971 143.292L107.591 122.819C99.6962 127.837 90.1955 130.754 79.7313 130.754L79.7982 130.768Z" fill="#3385FF"/>
<path d="M686.692 93.0257C684.862 93.0403 683.049 92.6634 681.376 91.9203C679.702 91.1771 678.208 90.085 676.991 88.7169C676.857 88.4493 676.857 88.1817 677.125 88.0479L699.759 78.4802L706.363 75.6501C706.63 75.5163 706.63 75.3825 706.63 75.2487C705.568 70.6329 702.928 66.5325 699.166 63.6548C695.404 60.7771 690.756 59.3026 686.023 59.4855C675.519 59.887 666.754 68.3841 666.353 78.8884C666.216 81.6571 666.646 84.4245 667.614 87.0219C668.583 89.6192 670.07 91.992 671.986 93.9955C673.902 95.999 676.206 97.5911 678.757 98.6748C681.309 99.7584 684.054 100.311 686.826 100.298C695.31 100.298 702.589 95.0463 705.694 87.6397C705.828 87.3721 705.694 87.1045 705.426 87.1045L698.822 85.9002C698.689 85.9002 698.421 85.9002 698.421 86.1678C695.999 90.2089 691.683 93.0391 686.699 93.0391L686.692 93.0257ZM686.692 66.8921C690.6 66.8921 694.099 68.645 696.394 71.3346C696.527 71.6023 696.527 71.8699 696.26 72.0037L674.167 81.3706C674.115 81.3926 674.058 81.4029 674 81.4011C673.943 81.3992 673.887 81.3852 673.836 81.3598C673.784 81.3345 673.739 81.2984 673.703 81.2541C673.666 81.2098 673.64 81.1583 673.625 81.103V80.0258C673.492 72.6192 679.42 66.8252 686.692 66.8252V66.8921ZM665.403 60.1546H658.939C658.806 60.1546 658.672 60.2884 658.538 60.4222L648.034 91.1991C647.766 91.8682 646.963 91.8682 646.696 91.1991L636.191 60.4222C636.191 60.2884 636.058 60.1546 635.79 60.1546H629.327C629.059 60.1546 628.925 60.4222 628.925 60.6898L642.26 99.4822C642.26 99.616 642.394 99.7498 642.661 99.7498H651.827C651.961 99.7498 652.095 99.616 652.229 99.4822L665.563 60.6898C665.831 60.4222 665.697 60.1546 665.429 60.1546H665.403ZM622.85 60.1546H616.247C615.979 60.1546 615.845 60.2884 615.845 60.556V99.3483C615.845 99.616 615.979 99.7498 616.247 99.7498H622.85C623.118 99.7498 623.252 99.616 623.252 99.3483V60.6229C623.252 60.4891 623.118 60.2215 622.85 60.2215V60.1546ZM622.85 47.4959H616.247C615.979 47.4959 615.845 47.6297 615.845 47.8973V54.501C615.845 54.7686 615.979 54.9024 616.247 54.9024H622.85C623.118 54.9024 623.252 54.7686 623.252 54.501V47.8973C623.252 47.6297 623.118 47.4959 622.85 47.4959ZM609.235 60.1546H601.828C601.694 60.1546 601.561 60.0208 601.561 59.887V43.0466C601.561 42.779 601.427 42.6452 601.159 42.6452H594.616C594.348 42.6452 594.214 42.779 594.214 43.0466V59.9539C594.214 60.0877 594.08 60.2215 593.947 60.2215H586.674C586.406 60.2215 586.272 60.3553 586.272 60.6229V67.2266C586.272 67.4942 586.406 67.628 586.674 67.628H593.947C594.08 67.628 594.214 67.7618 594.214 67.8957V99.3417C594.214 99.6093 594.348 99.7431 594.616 99.7431H601.219C601.487 99.7431 601.621 99.6093 601.621 99.3417V67.8957C601.621 67.7618 601.755 67.628 601.888 67.628H609.295C609.563 67.628 609.696 67.4942 609.696 67.2266V60.6229C609.696 60.4891 609.429 60.2215 609.295 60.2215L609.235 60.1546Z" fill="white"/>
<path d="M565.993 93.0257C564.057 93.0229 562.145 92.5935 560.394 91.7681C558.642 90.9427 557.094 89.7416 555.86 88.2502C554.625 86.7587 553.734 85.0136 553.25 83.1388C552.766 81.2641 552.702 79.3057 553.06 77.4031C553.863 72.82 558.446 68.1031 563.096 67.1664C565.376 66.6429 567.754 66.7418 569.982 67.4528C572.21 68.1637 574.207 69.4605 575.762 71.2075C575.895 71.3413 576.163 71.3413 576.297 71.2075L581.014 66.4906C581.148 66.3568 581.148 66.0892 581.014 65.9554C577.106 61.6466 571.312 59.0841 564.983 59.3517C554.612 59.887 545.982 68.3841 545.446 78.7546C544.911 90.4766 554.211 100.165 565.92 100.165C571.848 100.165 577.227 97.6021 581.007 93.561C581.141 93.4271 581.141 93.2933 581.007 93.1595L576.29 88.4426C576.156 88.3088 575.889 88.3088 575.755 88.4426C573.467 91.4066 569.961 93.0257 566.053 93.0257H565.993Z" fill="white"/>
<path d="M521.942 93.0257C520.112 93.0403 518.299 92.6634 516.626 91.9203C514.953 91.1771 513.458 90.085 512.241 88.7169C512.107 88.4493 512.107 88.1817 512.375 88.0478L535.009 78.4802L541.613 75.6501C541.88 75.5163 541.88 75.3825 541.88 75.2487C540.818 70.6329 538.179 66.5325 534.417 63.6548C530.655 60.7771 526.006 59.3026 521.273 59.4855C510.769 59.887 502.004 68.3841 501.603 78.8884C501.466 81.6571 501.896 84.4245 502.864 87.0219C503.833 89.6192 505.32 91.992 507.236 93.9955C509.152 95.999 511.456 97.5911 514.007 98.6747C516.559 99.7584 519.304 100.311 522.076 100.298C530.56 100.298 537.839 95.0463 540.944 87.6397C541.078 87.3721 540.944 87.1045 540.676 87.1045L534.072 85.9002C533.939 85.9002 533.671 85.9002 533.671 86.1678C531.249 90.2089 526.8 93.0391 521.949 93.0391L521.942 93.0257ZM521.942 66.8921C525.85 66.8921 529.349 68.645 531.644 71.3346C531.778 71.6023 531.778 71.8699 531.51 72.0037L509.417 81.3706C509.365 81.3926 509.308 81.4029 509.25 81.4011C509.193 81.3992 509.137 81.3851 509.086 81.3598C509.034 81.3345 508.989 81.2984 508.953 81.2541C508.917 81.2098 508.89 81.1583 508.876 81.103V80.0258C508.742 72.6192 514.67 66.8252 521.942 66.8252V66.8921ZM495.942 42.6452H489.339C489.071 42.6452 488.937 42.779 488.937 43.0466V99.355C488.937 99.6227 489.071 99.7565 489.339 99.7565H495.942C496.21 99.7565 496.344 99.6227 496.344 99.355V43.0466C496.344 42.779 496.076 42.6452 495.942 42.6452ZM481.524 42.6452H474.854C474.586 42.6452 474.452 42.779 474.452 43.0466V99.355C474.452 99.6227 474.586 99.7565 474.854 99.7565H481.457C481.725 99.7565 481.859 99.6227 481.859 99.355V43.0466C481.725 42.779 481.591 42.6452 481.457 42.6452H481.524ZM449.195 66.8921C456.468 66.8921 462.262 72.82 462.262 79.9589C462.232 83.4152 460.846 86.7216 458.402 89.1657C455.958 91.6098 452.651 92.996 449.195 93.0257C445.739 92.996 442.432 91.6098 439.988 89.1657C437.544 86.7216 436.158 83.4152 436.128 79.9589C436.128 72.82 441.922 66.8921 449.195 66.8921ZM449.195 59.4855C446.506 59.4855 443.844 60.0151 441.36 61.044C438.876 62.0729 436.619 63.5809 434.718 65.482C432.817 67.3832 431.309 69.6401 430.28 72.1241C429.251 74.608 428.722 77.2703 428.722 79.9589C428.722 82.6475 429.251 85.3097 430.28 87.7937C431.309 90.2776 432.817 92.5346 434.718 94.4357C436.619 96.3368 438.876 97.8449 441.36 98.8738C443.844 99.9027 446.506 100.432 449.195 100.432C451.884 100.432 454.546 99.9027 457.03 98.8738C459.514 97.8449 461.771 96.3368 463.672 94.4357C465.573 92.5346 467.081 90.2776 468.11 87.7937C469.139 85.3097 469.668 82.6475 469.668 79.9589C469.668 77.2703 469.139 74.608 468.11 72.1241C467.081 69.6401 465.573 67.3832 463.672 65.482C461.771 63.5809 459.514 62.0729 457.03 61.044C454.546 60.0151 451.884 59.4855 449.195 59.4855Z" fill="white"/>
<path d="M411.607 93.0257C409.671 93.0229 407.759 92.5935 406.008 91.7681C404.256 90.9427 402.708 89.7416 401.473 88.2502C400.239 86.7587 399.348 85.0136 398.864 83.1388C398.38 81.2641 398.315 79.3057 398.674 77.4031C399.477 72.82 404.06 68.1031 408.71 67.1664C410.99 66.6429 413.368 66.7418 415.596 67.4528C417.824 68.1637 419.82 69.4605 421.375 71.2075C421.509 71.3413 421.777 71.3413 421.911 71.2075L426.628 66.4906C426.761 66.3568 426.761 66.0892 426.628 65.9554C422.72 61.6466 416.926 59.0841 410.597 59.3517C400.226 59.887 391.595 68.3841 391.06 78.7546C390.525 90.4766 399.825 100.165 411.533 100.165C417.461 100.165 422.841 97.6021 426.621 93.561C426.755 93.4271 426.755 93.2933 426.621 93.1595L421.904 88.4426C421.77 88.3088 421.502 88.3088 421.369 88.4426C419.08 91.4066 415.575 93.0257 411.667 93.0257H411.607Z" fill="white"/>
<path d="M344.654 59.4855C342.409 59.5802 340.211 60.159 338.211 61.1822C336.211 62.2053 334.456 63.6487 333.066 65.4134C332.932 65.6811 332.397 65.5472 332.397 65.2796V60.5627C332.397 60.4289 332.263 60.1613 331.995 60.1613H325.391C325.258 60.1613 324.99 60.2951 324.99 60.5627V99.4889C324.99 99.6227 325.124 99.8903 325.391 99.8903H331.995C332.129 99.8903 332.397 99.7565 332.397 99.4889V80.0258C332.397 72.6192 337.381 67.3671 344.52 67.3671C353.887 67.3671 356.777 73.5626 356.777 80.8354V99.4353C356.777 99.5691 356.911 99.8368 357.179 99.8368H363.782C363.916 99.8368 364.184 99.703 364.184 99.4353V80.9023C364.318 69.5282 358.932 59.4922 344.647 59.4922L344.654 59.4855ZM301.145 93.0257C299.314 93.0403 297.501 92.6634 295.828 91.9203C294.155 91.1771 292.66 90.085 291.443 88.7169C291.309 88.4493 291.309 88.1817 291.577 88.0479L314.211 78.4802L320.815 75.6501C321.083 75.5163 321.083 75.3825 321.083 75.2487C320.02 70.6329 317.381 66.5325 313.619 63.6548C309.857 60.7771 305.208 59.3026 300.475 59.4855C289.971 59.887 281.206 68.3841 280.805 78.8884C280.669 81.6571 281.098 84.4245 282.066 87.0219C283.035 89.6192 284.522 91.992 286.438 93.9955C288.354 95.999 290.658 97.5911 293.209 98.6748C295.761 99.7584 298.506 100.311 301.278 100.298C309.762 100.298 317.041 95.0463 320.146 87.6397C320.28 87.3721 320.146 87.1045 319.878 87.1045L313.275 85.9002C313.141 85.9002 312.873 85.9002 312.873 86.1678C310.451 90.2089 306.136 93.0391 301.151 93.0391L301.145 93.0257ZM301.145 66.8921C305.052 66.8921 308.551 68.645 310.846 71.3346C310.98 71.6023 310.98 71.8699 310.712 72.0037L288.62 81.3706C288.567 81.3926 288.51 81.403 288.453 81.4011C288.395 81.3992 288.339 81.3852 288.288 81.3598C288.237 81.3345 288.191 81.2984 288.155 81.2541C288.119 81.2098 288.092 81.1583 288.078 81.103V80.0258C288.066 78.3003 288.395 76.5895 289.046 74.9915C289.697 73.3935 290.657 71.9397 291.871 70.7133C293.085 69.487 294.529 68.5123 296.12 67.8451C297.712 67.1779 299.419 66.8313 301.145 66.8252V66.8921ZM256.418 59.0841C251.299 59.2179 247.251 61.2385 244.428 64.6039C244.16 64.8715 243.759 64.7377 243.759 64.3362V60.5627C243.759 60.2951 243.625 60.1613 243.357 60.1613H236.754C236.486 60.1613 236.352 60.2951 236.352 60.5627V117.005C236.352 117.273 236.486 117.406 236.754 117.406H243.217C243.485 117.406 243.618 117.273 243.618 117.005V94.7787C243.618 94.3772 244.02 94.2434 244.287 94.511C247.118 97.8764 251.293 100.031 256.679 100.031C269.21 100.031 279.172 88.6567 276.75 75.7839C275.131 65.9487 266.253 58.9436 256.418 59.0841ZM258.98 92.4904C256.922 92.8328 254.812 92.679 252.825 92.0419C250.838 91.4047 249.031 90.3027 247.556 88.8272C246.081 87.3518 244.978 85.5456 244.341 83.5586C243.704 81.5717 243.55 79.4614 243.893 77.4031C244.829 72.0171 249.145 67.5678 254.598 66.698C256.656 66.3557 258.766 66.5095 260.753 67.1466C262.74 67.7837 264.547 68.8858 266.022 70.3612C267.497 71.8367 268.599 73.6429 269.237 75.6299C269.874 77.6168 270.027 79.7271 269.685 81.7854C268.882 87.1714 264.433 91.4869 258.98 92.4904ZM212.099 59.4855C209.41 59.4855 206.748 60.0151 204.264 61.044C201.78 62.0729 199.523 63.5809 197.622 65.482C195.721 67.3832 194.213 69.6401 193.184 72.1241C192.155 74.608 191.625 77.2703 191.625 79.9589C191.625 82.6475 192.155 85.3097 193.184 87.7937C194.213 90.2776 195.721 92.5346 197.622 94.4357C199.523 96.3369 201.78 97.8449 204.264 98.8738C206.748 99.9027 209.41 100.432 212.099 100.432C217.529 100.432 222.736 98.2752 226.576 94.4357C230.415 90.5962 232.572 85.3887 232.572 79.9589C232.572 74.529 230.415 69.3215 226.576 65.482C222.736 61.6425 217.529 59.4855 212.099 59.4855ZM212.099 66.8921C219.372 66.8921 225.166 72.82 225.166 79.9589C225.136 83.4152 223.75 86.7216 221.306 89.1657C218.862 91.6098 215.555 92.996 212.099 93.0257C208.643 92.996 205.336 91.6098 202.892 89.1657C200.448 86.7216 199.062 83.4152 199.032 79.9589C199.062 76.5025 200.448 73.1962 202.892 70.7521C205.336 68.308 208.643 66.9218 212.099 66.8921Z" fill="white"/>
</g>
<defs>
<clipPath id="clip0_449_49">
<rect width="707" height="160" fill="white" transform="translate(0.129395)"/>
</clipPath>
</defs>
</svg>
