<svg width="530" height="141" viewBox="0 0 530 141" fill="none" xmlns="http://www.w3.org/2000/svg">
<g clip-path="url(#clip0_449_71)">
<path d="M168.99 28.0228C167.904 28.0228 166.98 28.8118 166.81 29.8861L154.23 109.667C154.185 109.958 154.202 110.256 154.283 110.54C154.363 110.824 154.504 111.087 154.696 111.311C154.888 111.535 155.126 111.715 155.394 111.838C155.661 111.962 155.953 112.026 156.248 112.026H171.167C172.252 112.026 173.177 111.235 173.347 110.162L177.042 86.7343C177.211 85.6615 178.136 84.8709 179.222 84.8709H192.786C208.635 84.8709 222.089 73.3073 224.546 57.6382C227.024 41.8364 214.679 28.0571 197.182 28.0228H168.99ZM183.493 45.8329H194.346C203.28 45.8329 206.19 51.1048 205.27 56.9349C204.35 62.7775 199.831 67.0811 191.188 67.0811H180.142L183.493 45.8329ZM254.889 51.256C251.122 51.2701 246.788 52.0419 241.921 54.069C230.758 58.7218 225.397 68.3379 223.121 75.3484C223.121 75.3484 215.875 96.7371 232.246 108.488C232.246 108.488 247.428 119.8 264.52 107.791L264.225 109.667C264.179 109.958 264.197 110.255 264.277 110.539C264.357 110.823 264.498 111.085 264.689 111.31C264.881 111.534 265.118 111.714 265.386 111.837C265.654 111.961 265.945 112.025 266.239 112.026H280.402C281.489 112.026 282.412 111.235 282.582 110.162L291.197 55.5284C291.243 55.237 291.226 54.9391 291.146 54.6551C291.066 54.3711 290.925 54.1078 290.734 53.8833C290.543 53.6589 290.305 53.4785 290.037 53.3547C289.769 53.2309 289.478 53.1666 289.183 53.1661H275.02C273.933 53.1661 273.008 53.9567 272.84 55.0295L272.377 57.9703C272.377 57.9703 266.193 51.2139 254.889 51.256ZM255.353 68.5126C256.979 68.5126 258.466 68.7371 259.801 69.1659C265.912 71.1275 269.377 76.9981 268.374 83.3616C267.138 91.1969 260.712 96.9663 252.471 96.9663C250.846 96.9663 249.359 96.7433 248.022 96.3145C241.913 94.3529 238.427 88.4822 239.429 82.1188C240.666 74.2834 247.112 68.5126 255.353 68.5126Z" fill="#003087"/>
<path d="M372.944 28.0228C371.857 28.0228 370.934 28.8118 370.764 29.8861L358.184 109.667C358.138 109.958 358.156 110.256 358.236 110.54C358.317 110.824 358.458 111.087 358.65 111.311C358.841 111.535 359.079 111.715 359.347 111.838C359.615 111.962 359.907 112.026 360.202 112.026H375.121C376.206 112.026 377.131 111.235 377.301 110.162L380.996 86.7343C381.165 85.6615 382.089 84.8709 383.176 84.8709H396.74C412.589 84.8709 426.041 73.3073 428.496 57.6382C430.976 41.8364 418.632 28.0571 401.136 28.0228H372.944ZM387.447 45.8329H398.299C407.234 45.8329 410.144 51.1048 409.224 56.9349C408.304 62.7775 403.787 67.0811 395.142 67.0811H384.096L387.447 45.8329ZM458.842 51.256C455.074 51.2701 450.74 52.0419 445.873 54.069C434.71 58.7218 429.349 68.3379 427.073 75.3484C427.073 75.3484 419.83 96.7371 436.201 108.488C436.201 108.488 451.38 119.8 468.473 107.791L468.178 109.667C468.133 109.958 468.151 110.256 468.231 110.54C468.311 110.824 468.452 111.087 468.644 111.311C468.836 111.535 469.074 111.715 469.342 111.838C469.61 111.962 469.901 112.026 470.196 112.026H484.358C485.444 112.026 486.368 111.235 486.537 110.162L495.156 55.5284C495.202 55.2368 495.184 54.9386 495.104 54.6544C495.024 54.3702 494.883 54.1067 494.691 53.8822C494.5 53.6576 494.261 53.4773 493.993 53.3537C493.725 53.2301 493.433 53.1661 493.138 53.1661H478.975C477.888 53.1661 476.963 53.9567 476.795 55.0295L476.332 57.9703C476.332 57.9703 470.145 51.2139 458.842 51.256ZM459.305 68.5126C460.931 68.5126 462.419 68.7371 463.753 69.1659C469.864 71.1275 473.329 76.9981 472.326 83.3616C471.09 91.1969 464.664 96.9663 456.423 96.9663C454.798 96.9663 453.311 96.7433 451.974 96.3145C445.865 94.3529 442.379 88.4822 443.381 82.1188C444.618 74.2834 451.064 68.5126 459.305 68.5126Z" fill="#0070E0"/>
<path d="M297.918 53.1661C296.795 53.1661 295.997 54.2623 296.34 55.3304L311.867 103.514L297.827 126.22C297.146 127.322 297.938 128.746 299.234 128.746H315.827C316.302 128.746 316.768 128.623 317.182 128.39C317.595 128.156 317.941 127.82 318.187 127.414L361.552 55.6766C362.218 54.5742 361.422 53.1646 360.134 53.1646H343.542C343.063 53.165 342.592 53.2901 342.176 53.5277C341.76 53.7653 341.413 54.1072 341.169 54.5196L324.099 83.3382L315.435 54.7332C315.152 53.8023 314.293 53.1646 313.322 53.1646L297.918 53.1661Z" fill="#003087"/>
<path d="M511.247 28.0228C510.162 28.0228 509.237 28.8133 509.068 29.8861L496.484 109.663C496.438 109.955 496.456 110.253 496.536 110.538C496.616 110.822 496.757 111.085 496.948 111.31C497.14 111.534 497.378 111.715 497.647 111.838C497.915 111.962 498.207 112.026 498.502 112.026H513.421C514.506 112.026 515.431 111.235 515.601 110.162L528.181 30.382C528.227 30.0908 528.209 29.7932 528.129 29.5096C528.049 29.226 527.908 28.9631 527.717 28.739C527.525 28.5148 527.288 28.3348 527.02 28.2112C526.752 28.0875 526.461 28.0233 526.167 28.0228H511.247Z" fill="#0070E0"/>
<path d="M44.6126 28.0228C43.6516 28.0236 42.7223 28.3671 41.9918 28.9916C41.2613 29.616 40.7773 30.4806 40.6271 31.4298L34.0049 73.4305C34.3136 71.469 36.0038 70.0235 37.9904 70.0235H57.3956C76.9255 70.0235 93.4975 55.7764 96.5256 36.4694C96.751 35.028 96.8787 33.573 96.9077 32.1143C91.9446 29.5119 86.1144 28.0228 79.726 28.0228H44.6126Z" fill="#001C64"/>
<path d="M96.9081 32.1159C96.879 33.5745 96.7513 35.0295 96.526 36.4709C93.4979 55.7779 76.9243 70.0251 57.3959 70.0251H37.9907C36.0057 70.0251 34.314 71.469 34.0052 73.4321L27.9162 112.027L24.1022 136.24C24.0278 136.708 24.0557 137.186 24.1841 137.642C24.3125 138.098 24.5383 138.521 24.8459 138.881C25.1535 139.241 25.5356 139.53 25.9658 139.728C26.396 139.927 26.8641 140.029 27.3377 140.029H48.4005C49.3615 140.028 50.2908 139.685 51.0213 139.06C51.7518 138.436 52.2357 137.571 52.3859 136.622L57.9338 101.434C58.0842 100.484 58.5686 99.6189 59.2997 98.9943C60.0309 98.3698 60.9609 98.0266 61.9225 98.0266H74.3235C93.8534 98.0266 110.425 83.7795 113.454 64.4725C115.604 50.7695 108.702 38.3 96.9081 32.1159Z" fill="#0070E0"/>
<path d="M20.684 0.0260696C18.699 0.0260696 17.0072 1.46996 16.6985 3.42998L0.170073 108.238C-0.143342 110.228 1.39415 112.027 3.40874 112.027H27.919L34.0049 73.4322L40.6271 31.4315C40.7774 30.4823 41.2613 29.6177 41.9918 28.9932C42.7224 28.3688 43.6516 28.0253 44.6127 28.0245H79.726C86.1159 28.0245 91.9446 29.5151 96.9078 32.116C97.2477 14.5383 82.7432 0.0260696 62.8016 0.0260696H20.684Z" fill="#003087"/>
</g>
<defs>
<clipPath id="clip0_449_71">
<rect width="529" height="141" fill="white" transform="translate(0.129395)"/>
</clipPath>
</defs>
</svg>
