<svg width="498" height="151" viewBox="0 0 498 151" fill="none" xmlns="http://www.w3.org/2000/svg">
  <g clip-path="url(#clip0_177_125)">
    <path
      d="M309.08 117.21C280.235 138.472 238.425 149.816 202.427 149.816C151.952 149.816 106.512 131.147 72.1348 100.098C69.4339 97.6559 71.8539 94.3284 75.095 96.2298C112.195 117.815 158.067 130.801 205.452 130.801C237.409 130.801 272.564 124.19 304.889 110.469C309.772 108.395 313.856 113.667 309.08 117.21Z"
      fill="#09090b" />
    <path
      d="M321.072 103.49C317.399 98.7795 296.699 101.264 287.408 102.366C284.578 102.712 284.146 100.249 286.695 98.477C303.182 86.8739 330.234 90.223 333.389 94.1123C336.543 98.0232 332.567 125.14 317.075 138.083C314.698 140.071 312.429 139.012 313.488 136.376C316.967 127.69 324.767 108.222 321.072 103.49Z"
      fill="#09090b" />
    <path
      d="M288.057 16.5637V5.28474C288.057 3.57776 289.353 2.43258 290.909 2.43258H341.405C343.025 2.43258 344.322 3.59937 344.322 5.28474V14.9432C344.3 16.5637 342.939 18.6813 340.519 22.0304L314.353 59.3894C324.076 59.1517 334.339 60.5994 343.155 65.5691C345.143 66.6926 345.683 68.3348 345.834 69.9554V81.9906C345.834 83.6328 344.019 85.5558 342.118 84.5619C326.582 76.4159 305.947 75.53 288.77 84.6483C287.019 85.599 285.183 83.6976 285.183 82.0554V70.6252C285.183 68.7886 285.204 65.6555 287.041 62.8682L317.356 19.3943H290.974C289.353 19.3943 288.057 18.2491 288.057 16.5637Z"
      fill="#09090b" />
    <path
      d="M103.854 86.9387H88.4916C87.0223 86.8307 85.8555 85.7287 85.7474 84.3242V5.47922C85.7474 3.90188 87.0655 2.64865 88.7076 2.64865H103.033C104.524 2.71343 105.713 3.85866 105.821 5.28474V15.5914H106.102C109.84 5.63045 116.862 0.984887 126.326 0.984887C135.941 0.984887 141.948 5.63045 146.269 15.5914C149.986 5.63045 158.434 0.984887 167.488 0.984887C173.927 0.984887 180.971 3.64258 185.271 9.60619C190.132 16.2396 189.138 25.8765 189.138 34.3249L189.117 84.0865C189.117 85.6639 187.799 86.9387 186.157 86.9387H170.815C169.281 86.8307 168.05 85.599 168.05 84.0865V42.298C168.05 38.9705 168.352 30.6733 167.617 27.5186C166.472 22.2249 163.037 20.7339 158.586 20.7339C154.869 20.7339 150.98 23.2188 149.403 27.1945C147.825 31.1703 147.976 37.8253 147.976 42.298V84.0865C147.976 85.6639 146.658 86.9387 145.016 86.9387H129.675C128.119 86.8307 126.909 85.599 126.909 84.0865L126.888 42.298C126.888 33.5039 128.335 20.5611 117.424 20.5611C106.382 20.5611 106.815 33.1797 106.815 42.298V84.0865C106.815 85.6639 105.496 86.9387 103.854 86.9387Z"
      fill="#09090b" />
    <path
      d="M387.796 0.984887C410.591 0.984887 422.929 20.5611 422.929 45.4527C422.929 69.5016 409.295 88.5808 387.796 88.5808C365.411 88.5808 353.224 69.0046 353.224 44.61C353.224 20.0641 365.562 0.984887 387.796 0.984887ZM387.925 17.0823C376.603 17.0823 375.89 32.5099 375.89 42.1252C375.89 51.762 375.739 72.3322 387.796 72.3322C399.701 72.3322 400.263 55.7378 400.263 45.6255C400.263 38.9705 399.982 31.019 397.973 24.7097C396.244 19.2215 392.809 17.0823 387.925 17.0823Z"
      fill="#09090b" />
    <path
      d="M452.488 86.9387H437.19C435.656 86.8307 434.424 85.599 434.424 84.0865L434.403 5.21991C434.532 3.77223 435.807 2.64865 437.363 2.64865H451.602C452.942 2.71343 454.044 3.62098 454.346 4.8526V16.9095H454.627C458.927 6.12742 464.955 0.984887 475.565 0.984887C482.457 0.984887 489.177 3.46973 493.499 10.276C497.518 16.5853 497.518 27.1945 497.518 34.8219V84.4539C497.345 85.8367 496.07 86.9387 494.557 86.9387H479.151C477.747 86.8307 476.58 85.7935 476.429 84.4539V41.6282C476.429 33.0069 477.423 20.3882 466.814 20.3882C463.076 20.3882 459.64 22.8947 457.933 26.6976C455.772 31.516 455.491 36.3128 455.491 41.6282V84.0865C455.47 85.6639 454.13 86.9387 452.488 86.9387Z"
      fill="#09090b" />
    <path
      d="M247.802 49.2772V45.9497C236.696 45.9497 224.963 48.3265 224.963 61.4205C224.963 68.0539 228.399 72.5482 234.297 72.5482C238.619 72.5482 242.487 69.8905 244.928 65.5691C247.953 60.2537 247.802 55.2624 247.802 49.2772ZM263.294 86.7226C262.279 87.6301 260.81 87.6949 259.664 87.0899C254.565 82.8549 253.658 80.8887 250.849 76.8481C242.422 85.4478 236.458 88.019 225.525 88.019C212.604 88.019 202.535 80.046 202.535 64.0782C202.535 51.6108 209.298 43.1191 218.913 38.9705C227.254 35.2973 238.9 34.649 247.802 33.6335V31.6456C247.802 27.994 248.083 23.6725 245.944 20.5179C244.064 17.6873 240.477 16.5205 237.323 16.5205C231.467 16.5205 226.238 19.5239 224.963 25.7468C224.704 27.1297 223.688 28.491 222.305 28.5558L207.396 26.9568C206.143 26.676 204.76 25.6604 205.106 23.7374C208.542 5.67368 224.855 0.228627 239.462 0.228627C246.938 0.228627 256.704 2.2165 262.603 7.87761C270.079 14.8568 269.366 24.1695 269.366 34.3033V58.2442C269.366 65.4394 272.348 68.5941 275.157 72.4834C276.151 73.8663 276.367 75.53 275.114 76.5672C271.981 79.1817 266.406 84.0433 263.338 86.7658L263.294 86.7226Z"
      fill="#09090b" />
    <path
      d="M46.4006 49.2772V45.9497C35.2944 45.9497 23.5617 48.3265 23.5617 61.4205C23.5617 68.0539 26.9972 72.5482 32.896 72.5482C37.2175 72.5482 41.0852 69.8905 43.5268 65.5691C46.5518 60.2537 46.4006 55.2624 46.4006 49.2772ZM61.893 86.7226C60.8775 87.6301 59.4081 87.6949 58.263 87.0899C53.1637 82.8549 52.2561 80.8887 49.4472 76.8481C41.0203 85.4478 35.0567 88.019 24.1234 88.019C11.2023 88.019 1.1333 80.046 1.1333 64.0782C1.1333 51.6108 7.89638 43.1191 17.5116 38.9705C25.852 35.2973 37.4984 34.649 46.4006 33.6335V31.6456C46.4006 27.994 46.6815 23.6725 44.5423 20.5179C42.6625 17.6873 39.0757 16.5205 35.921 16.5205C30.0655 16.5205 24.8365 19.5239 23.5617 25.7468C23.3024 27.1297 22.2868 28.491 20.904 28.5558L5.99494 26.9568C4.74172 26.676 3.35885 25.6604 3.70456 23.7374C7.14012 5.67368 23.4536 0.228627 38.0602 0.228627C45.5363 0.228627 55.3028 2.2165 61.2015 7.87761C68.6777 14.8568 67.9646 24.1695 67.9646 34.3033V58.2442C67.9646 65.4394 70.9464 68.5941 73.7554 72.4834C74.7493 73.8663 74.9654 75.53 73.7122 76.5672C70.5791 79.1817 65.0044 84.0433 61.9362 86.7658L61.893 86.7226Z"
      fill="#09090b" />
  </g>
  <defs>
    <clipPath id="clip0_177_125">
      <rect width="496.978" height="150" fill="#09090b" transform="translate(0.833313 0.0258408)" />
    </clipPath>
  </defs>
</svg>