<svg width="494" height="151" viewBox="0 0 494 151" fill="none" xmlns="http://www.w3.org/2000/svg">
  <g clip-path="url(#clip0_177_119)">
    <path
      d="M189.336 51.4193H177.205C176.631 51.3373 176.057 51.5832 175.647 51.993C175.237 52.3209 174.992 52.8127 174.992 53.3045V96.3373C174.992 96.9111 175.319 97.4849 175.893 97.7308C177.041 98.4685 178.516 98.4685 179.664 97.7308C180.237 97.4849 180.565 96.9111 180.565 96.3373V79.698H188.926C192.533 79.8619 196.139 78.6324 198.926 76.3373C201.631 73.5504 203.024 69.698 202.696 65.7635V65.1898C203.024 61.4193 201.795 57.5668 199.172 54.7799C196.467 52.3209 192.942 51.1734 189.336 51.4193ZM197.696 66.1734C197.86 68.6324 197.041 71.0914 195.483 72.9766C193.762 74.698 191.385 75.5176 189.008 75.4357H180.647V56.2553H189.008C191.303 56.0914 193.598 56.993 195.319 58.5504C196.959 60.4357 197.778 62.8947 197.533 65.3537L197.696 66.1734ZM225.565 54.534C222.86 57.3209 221.467 61.2553 221.795 65.1898V84.534C221.467 88.4685 222.86 92.3209 225.565 95.1898C231.549 99.698 239.746 99.698 245.729 95.1898C248.516 92.4029 249.91 88.4685 249.5 84.534V65.3537C249.91 61.3373 248.516 57.4029 245.729 54.534C239.746 50.0258 231.467 50.0258 225.565 54.534ZM244.09 84.534C244.336 87.075 243.516 89.534 241.877 91.4193C240.237 93.0586 237.942 93.8783 235.647 93.7143C229.992 93.7143 227.287 90.5996 227.287 84.534V65.3537C227.287 59.2881 230.074 56.1734 235.647 56.1734C237.942 56.0094 240.237 56.8291 241.877 58.4685C243.516 60.3537 244.336 62.8127 244.09 65.2717V84.534ZM288.926 73.0586C286.795 72.157 284.746 71.2553 282.696 70.5176C280.729 69.8619 278.926 68.8783 277.369 67.5668C275.975 66.4193 275.156 64.534 275.319 62.7307C275.156 60.6816 276.057 58.7963 277.778 57.6488C279.664 56.5012 281.877 56.0094 284.008 56.0914C286.057 56.0094 288.106 56.4193 289.992 57.3209C290.893 57.7307 291.877 58.1406 292.86 58.4685C293.598 58.4685 294.172 58.0586 294.5 57.4029C294.828 56.8291 295.156 56.1734 295.156 55.4357C295.156 54.1242 293.926 53.0586 291.467 52.2389C289.008 51.5012 286.467 51.0914 283.844 51.0914C282.205 51.0914 280.565 51.2553 278.926 51.6652C277.369 52.075 275.811 52.6488 274.418 53.4684C272.942 54.3701 271.795 55.6816 270.975 57.2389C270.074 59.0422 269.664 61.0914 269.664 63.1406C269.582 65.6816 270.319 68.1406 271.795 70.1898C273.188 71.993 274.992 73.3865 277.123 74.3701C279.254 75.2717 281.303 76.0914 283.352 76.8291C285.319 77.5668 287.123 78.7143 288.68 80.1898C290.156 81.7471 290.893 83.7963 290.811 85.9275C290.975 88.1406 290.074 90.3537 288.434 91.9111C286.549 93.3865 284.254 94.0422 281.877 93.9603C280.237 94.0422 278.68 93.7144 277.205 93.1406C276.057 92.8127 275.074 92.157 274.172 91.3373L272.123 89.3701C271.713 88.9603 271.221 88.6324 270.647 88.5504C269.992 88.6324 269.418 88.9603 269.09 89.4521C268.68 90.0258 268.352 90.6816 268.352 91.5012C268.352 93.0586 269.664 94.616 272.533 96.1734C275.483 97.8947 278.844 98.7143 282.205 98.6324C285.893 98.7963 289.582 97.5668 292.451 95.2717C295.156 92.6488 296.549 88.9603 296.303 85.2717C296.631 80.1898 293.68 75.2717 288.926 73.0586ZM340.483 51.4193H314.336C313.762 51.4193 313.27 51.6652 312.942 52.157C312.205 53.2226 312.205 54.616 312.942 55.5996C313.27 56.0094 313.762 56.3373 314.336 56.3373H324.746V96.3373C324.746 96.9111 325.074 97.4849 325.565 97.7308C326.713 98.4685 328.188 98.4685 329.336 97.7308C329.91 97.4849 330.156 96.9111 330.156 96.3373V56.3373H340.401C340.975 56.4193 341.549 56.0914 341.795 55.5996C342.123 55.1078 342.369 54.4521 342.287 53.8783C342.287 53.3045 342.123 52.7307 341.795 52.2389C341.549 51.6652 341.057 51.4193 340.483 51.4193ZM392.369 51.4193C390.729 51.4193 389.336 52.5668 388.188 54.8619L378.024 74.2062L367.942 54.8619C366.795 52.5668 365.319 51.4193 363.762 51.4193H362.615C361.385 51.6652 360.483 52.8127 360.647 54.1242V96.2553C360.647 96.9111 360.975 97.4849 361.549 97.7308C362.123 98.0586 362.778 98.3045 363.516 98.2225C364.172 98.2225 364.746 97.9767 365.319 97.6488C365.893 97.4029 366.139 96.8291 366.139 96.2553V62.3209L375.893 80.8455C376.139 81.7471 376.959 82.4029 377.86 82.4029C378.844 82.3209 379.664 81.7471 379.992 80.8455L389.746 62.6488V96.1734C389.746 96.7471 390.074 97.3209 390.565 97.5668C391.713 98.2225 393.188 98.2225 394.336 97.5668C394.91 97.3209 395.156 96.7471 395.156 96.1734V53.9603C395.237 53.7144 395.237 53.5504 395.156 53.3045C394.828 52.075 393.598 51.1734 392.369 51.4193ZM430.074 51.4193C428.27 51.4193 427.123 52.075 426.795 53.2225L413.598 95.5996C413.516 95.7635 413.516 95.9275 413.598 96.0914C413.598 96.8291 414.008 97.4848 414.664 97.8127C415.319 98.2225 416.057 98.4685 416.877 98.4685C417.697 98.6324 418.598 98.0586 418.844 97.2389L421.631 87.8947H438.27L441.057 97.2389C441.303 98.0586 442.205 98.5504 443.024 98.4685C443.844 98.5504 444.664 98.3045 445.319 97.8127C445.975 97.5668 446.385 96.993 446.385 96.2553M446.385 96.0914V95.8455L433.27 53.3045C432.942 52.075 431.877 51.5012 430.074 51.5012L446.385 96.0914ZM422.86 83.2225L429.992 59.2062L437.205 83.2225H422.86ZM492.533 51.8291C491.385 51.1734 489.91 51.1734 488.762 51.8291C488.27 52.075 487.942 52.6488 487.942 53.2225V86.1734L471.959 54.8619C471.549 53.8783 470.893 52.9766 470.156 52.2389C469.5 51.6652 468.762 51.4193 467.86 51.4193C466.057 51.4193 465.156 52.075 465.156 53.3045V96.3373C465.074 96.9111 465.401 97.4849 465.975 97.7308C467.123 98.4685 468.598 98.4685 469.746 97.7308C470.237 97.4849 470.565 96.9111 470.565 96.3373V63.7144L487.205 96.0094C487.778 97.4029 489.09 98.3865 490.565 98.4685C491.221 98.4685 491.877 98.3045 492.533 97.8947C493.024 97.5668 493.352 97.075 493.352 96.5012V53.3045C493.352 52.6488 493.024 52.157 492.533 51.8291Z"
      fill="#09090b" />
    <path
      d="M85.5654 1.09141C44.6638 -4.23646 7.36871 24.698 2.12281 65.5996C-3.1231 106.501 25.7294 143.878 66.631 149.124C107.533 154.37 144.828 125.436 150.156 84.616C155.402 43.7144 126.549 6.33731 85.5654 1.09141C85.6474 1.09141 85.6474 1.09141 85.5654 1.09141ZM100.975 47.5668C99.5818 47.6488 98.2704 48.1406 97.2867 49.1242L69.5818 76.8291L63.6802 70.9275C90.9753 43.7144 95.8933 43.4685 100.975 47.5668ZM70.7294 77.8127L98.3523 50.4357C99.9097 48.9603 102.287 48.9603 103.844 50.4357C104.582 51.1734 104.992 52.2389 104.992 53.2225C104.91 54.2881 104.5 55.2717 103.68 56.0094L74.4999 81.7472L70.7294 77.8127ZM72.7785 81.993L65.8933 83.7144C65.7294 83.7963 65.6474 83.7963 65.4835 83.7144C65.4015 83.5504 65.4015 83.3865 65.4835 83.3045L69.6638 79.1242L72.7785 81.993ZM55.3195 79.1242L62.6146 71.8291L68.1064 77.4848L55.5654 80.1898C55.3195 80.2717 54.9917 80.0258 54.9917 79.7799C54.9097 79.616 54.9917 79.4521 55.1556 79.3701L55.3195 79.1242ZM32.6966 117.075C32.5326 116.993 32.3687 116.911 32.2867 116.747C32.2048 116.583 32.2048 116.419 32.2867 116.255L38.1884 110.354L45.8113 117.895L32.6966 117.075ZM47.7786 109.206C47.2048 109.534 46.8769 110.108 47.0408 110.764L48.2704 116.173C48.3523 116.501 48.1884 116.911 47.9425 117.075C47.6966 117.321 47.2867 117.321 47.0408 117.075L39.4179 109.206L62.7786 85.7635L74.09 83.3045L79.4999 88.7144C69.8277 96.7472 59.172 103.632 47.7786 109.042V109.206ZM80.6474 87.8947L75.4835 82.7307L104.664 57.075C104.91 56.8291 105.238 56.5832 105.402 56.2553C104.418 64.534 92.6966 76.4193 80.6474 87.8947ZM103.352 47.7307C99.0081 43.2226 99.172 36.0094 103.68 31.6652C107.779 27.7308 114.172 27.4849 118.598 31.0094L108.598 41.0094C108.352 41.3373 108.352 41.7471 108.598 42.075L116.385 49.8619C111.959 51.993 106.713 51.0914 103.27 47.6488L103.352 47.7307ZM119.418 47.7307C118.844 48.2226 118.352 48.7144 117.697 49.1242L110.238 41.6652L119.746 32.157C123.844 36.5012 123.762 43.3865 119.418 47.7307Z"
      fill="#09090b" />
  </g>
  <defs>
    <clipPath id="clip0_177_119">
      <rect width="492.623" height="150" fill="#09090b" transform="translate(0.811279 0.0258408)" />
    </clipPath>
  </defs>
</svg>