<svg width="781" height="151" viewBox="0 0 781 151" fill="none" xmlns="http://www.w3.org/2000/svg">
  <path
    d="M324.116 41.9481C318.271 38.7333 309.581 37.1694 297.548 37.1651C281.083 37.1712 265.8 40.5866 260.015 42.7425C258.709 43.1615 257.312 44.289 257.289 46.2185L257.293 46.644L258.913 54.8322L258.953 54.9846C259.461 56.6518 260.849 57.3995 262.114 57.3995H262.12C262.527 57.3821 262.844 57.3037 263.138 57.2286L265.879 56.5887C273.051 54.793 283.891 52.0811 295.996 52.0811C303.339 52.0811 308.275 52.721 311.584 54.1183C316.953 56.1512 316.987 59.6218 317.041 65.3668V73.9599C316.426 73.949 315.388 73.9381 313.789 73.9381C307.86 73.9381 296.203 74.2134 284.738 76.0515C267.242 78.7385 252.766 82.9262 252.857 107.032C252.864 137.632 281.246 137.69 294.886 137.718H294.888C304.147 137.716 312.69 136.349 318.269 135.195C331.002 132.238 334.253 128.195 334.082 115.543V64.6594C334.101 56.8989 334.124 47.2404 324.116 41.9481ZM317.126 120.552C310.349 122.752 302.934 123.865 295.081 123.865V124.58L295.072 123.865C282.524 123.769 270.27 122.334 270.254 106.329C270.335 93.599 277.127 92.0841 285.724 90.1644L286.321 90.0316C293.969 88.397 313.167 88.0901 317.128 88.0444L317.126 120.552ZM475.964 64.6594V115.543C476.134 128.195 472.883 132.238 460.151 135.195C454.571 136.349 446.028 137.716 436.768 137.718C423.129 137.69 394.745 137.632 394.738 107.032C394.647 82.9262 409.124 78.7385 426.619 76.0515C438.084 74.2134 449.742 73.9381 455.669 73.9381C457.269 73.9381 458.306 73.949 458.922 73.9599V65.3668C458.868 59.6218 458.834 56.1512 453.466 54.1183C450.156 52.721 445.22 52.0811 437.877 52.0811C425.771 52.0811 414.932 54.793 407.76 56.5887L405.02 57.2286C404.725 57.3038 404.408 57.3821 404 57.3995H403.995C402.73 57.3995 401.342 56.6518 400.834 54.9846L400.794 54.8322L399.174 46.644L399.17 46.2185C399.193 44.289 400.59 43.1615 401.896 42.7425C407.679 40.5866 422.964 37.1716 439.429 37.1651C451.462 37.1694 460.152 38.7333 465.997 41.9481C476.004 47.2404 475.982 56.8989 475.964 64.6594ZM459.009 88.0444C455.048 88.0901 435.85 88.397 428.201 90.0316L427.606 90.1644C419.008 92.0841 412.216 93.599 412.136 106.329C412.151 122.334 424.405 123.769 436.953 123.865L436.963 124.58V123.865C444.816 123.865 452.23 122.752 459.007 120.552L459.009 88.0444ZM732.972 37.1651C693.446 37.2183 690.094 63.1891 690.057 87.5318C690.094 111.785 693.446 137.665 732.972 137.718H732.975C772.471 137.665 775.838 111.855 775.893 87.5286C775.852 62.0737 772.501 37.2184 732.972 37.1651ZM732.974 123.51C709 123.405 707.795 111.099 707.632 87.5362C707.795 63.8443 708.998 51.476 732.971 51.3715C756.951 51.476 758.152 63.8443 758.315 87.5253C758.152 111.099 756.947 123.405 732.974 123.51ZM662.037 134.136L661.004 134.398C655.477 135.799 647.904 137.718 634.631 137.718H634.602C598.02 137.665 590.841 119.212 590.801 87.3544C590.845 50.8154 602.428 37.214 633.536 37.1651C644.511 37.1651 652.072 38.5842 657.497 39.8945L657.464 10.4641C657.419 9.17337 658.003 7.48327 661.058 6.90104L670.774 4.42302H671.304C673.536 4.47857 674.326 6.4679 674.331 8.15365V118.735C674.481 125.717 673.659 131.708 662.037 134.136ZM657.473 54.0574C654.229 53.2325 645.173 51.1941 634.976 51.1941C616.247 51.366 608.392 56.4538 608.196 87.5351C608.416 121.664 618.578 123.508 635.144 123.688L635.154 124.403V123.688C645.464 123.688 654.31 121.538 657.465 120.669L657.473 54.0574ZM570.156 135.413H561.466C559.138 135.409 557.383 133.651 557.377 131.324V65.7216C557.22 54.6244 553.904 51.538 541.954 51.3715C528.435 51.3715 514.751 54.7637 510.237 55.9934V131.322C510.233 133.69 508.589 135.41 506.327 135.413H497.461C495.132 135.409 493.374 133.651 493.371 131.324V57.7434C493.242 50.9329 493.882 46.225 503.57 43.0897C512.844 39.8869 530.595 37.1716 542.319 37.1651C564.666 37.1934 574.211 45.2554 574.241 64.1251V131.322C574.238 133.651 572.481 135.41 570.156 135.413ZM373.331 137.186H373.338C378.332 137.088 382.026 136.101 383.472 134.477C383.986 133.901 384.223 133.236 384.159 132.58C384.125 132.04 384.125 132.04 382.755 125.623L382.723 125.469C382.426 123.791 381.228 123.028 380.241 123.028C380.149 123.028 380.059 123.034 380.107 123.04C380.107 123.04 378.853 122.979 377.614 122.979H377.602C374.043 122.866 371.092 122.348 371.031 117.139V8.15478C371.028 6.33731 369.932 4.47308 367.828 4.42302L367.208 4.42825L357.475 6.92259C355.817 7.09236 354.091 8.27097 354.165 10.4617V117.494C354.183 130.169 360.986 137.163 373.323 137.186L373.331 137.186ZM235.87 135.413H166.139C163.811 135.409 162.054 133.651 162.049 131.324V122.812C162.001 120.726 162.67 119.796 163.955 118.204L219.457 53.6776H165.076C162.747 53.6723 160.989 51.9145 160.986 49.5889V43.5598C160.99 41.2331 162.747 39.4755 165.075 39.4711H235.515C237.842 39.4755 239.599 41.2331 239.604 43.5587V52.2476C239.637 53.818 239.093 55.15 237.839 56.5474L182.197 121.204H235.869C238.196 121.211 239.954 122.967 239.958 125.294V131.322C239.954 133.651 238.196 135.41 235.87 135.413Z"
    fill="#09090b" />
  <path
    d="M22.3275 28.7189C10.2759 28.7189 4.07923 61.6253 4.72458 92.5194C4.7073 92.5151 4.68744 92.5238 4.67017 92.5194C5.31443 119.636 11.3109 145.628 23.1982 145.628C68.8157 145.628 120.79 102.608 120.79 87.1868C120.79 83.3289 116.86 75.9057 111.594 70.0464C111.587 70.0504 111.573 70.0424 111.567 70.0464C111.209 69.6307 110.829 69.216 110.451 68.7949C94.2009 50.6641 60.4881 28.7189 22.3275 28.7189Z"
    fill="#09090b" />
  <path
    d="M4.71592 92.5183C38.9903 100.567 75.5815 91.5062 111.031 70.3783C111.21 70.2717 111.388 70.165 111.567 70.0573C111.209 69.6416 110.842 69.2226 110.464 68.8014C94.214 50.6706 60.4806 28.7211 22.32 28.7211C10.2683 28.7211 4.07056 61.6242 4.71592 92.5183ZM111.567 70.0573C111.575 70.0538 111.581 70.0495 111.587 70.0454L111.567 70.0573Z"
    fill="#09090b" />
  <path
    d="M4.68018 92.5107C5.32444 119.627 11.323 145.629 23.2103 145.629C68.8279 145.629 120.798 102.621 120.798 87.1999C120.798 83.3419 116.854 75.9046 111.588 70.0453C75.9539 91.4181 39.1461 100.616 4.68018 92.5107Z"
    fill="#09090b" />
</svg>