<svg xmlns="http://www.w3.org/2000/svg" width="24" height="24" fill="none"><path fill="#09090b" fill-rule="evenodd" d="m16.332 15.592-3.764 5.015h3.921l1.795-2.388 1.795 2.388H24L16.489 10.58h-3.921Zm2.377-3.177 1.37-1.834H24l-3.323 4.443zM0 3.393v12.949h3.663v-3.44h1.999c1.799-.002 4.084-.395 5.276-2.183.469-.716.703-1.56.703-2.535 0-.986-.234-1.837-.703-2.552-.469-.728-1.135-1.283-1.998-1.665-.85-.382-1.837-.574-3.02-.574Zm9.096 9.519s-1.497.628-3.468.604l2.116 2.826h3.921zm-5.433-2.84h2.034c.765 0 1.332-.167 1.702-.5.382-.333.574-.796.574-1.388 0-.604-.192-1.073-.574-1.405-.37-.333-.937-.5-1.702-.5H3.663Z" clip-rule="evenodd" style="stroke-width:.09375"/></svg>