<svg width="500" height="151" viewBox="0 0 500 151" fill="none" xmlns="http://www.w3.org/2000/svg">
  <g clip-path="url(#clip0_177_123)">
    <path
      d="M72.4341 56.5258C72.4341 65.0258 65.4341 72.0258 56.9341 72.0258C48.4341 72.0258 41.4341 65.0258 41.4341 56.5258C41.4341 48.0258 48.4341 41.0258 56.9341 41.0258C65.4341 41.0258 72.4341 48.0258 72.4341 56.5258ZM56.9341 78.0258C48.4341 78.0258 41.4341 85.0258 41.4341 93.5258C41.4341 102.026 48.4341 109.026 56.9341 109.026C65.4341 109.026 72.4341 102.026 72.4341 93.5258C72.4341 85.0258 65.4341 78.0258 56.9341 78.0258ZM150.434 75.0258C150.434 116.526 116.934 150.026 75.4341 150.026C33.9341 150.026 0.434082 116.526 0.434082 75.0258C0.434082 33.5258 33.9341 0.0258408 75.4341 0.0258408C116.934 0.0258408 150.434 33.5258 150.434 75.0258ZM130.434 75.0258C130.434 44.5258 105.934 20.0258 75.4341 20.0258C44.9341 20.0258 20.4341 44.5258 20.4341 75.0258C20.4341 105.526 44.9341 130.026 75.4341 130.026C105.934 130.026 130.434 105.526 130.434 75.0258ZM93.9341 78.0258C85.4341 78.0258 78.4341 85.0258 78.4341 93.5258C78.4341 102.026 85.4341 109.026 93.9341 109.026C102.434 109.026 109.434 102.026 109.434 93.5258C109.434 85.0258 102.434 78.0258 93.9341 78.0258ZM93.9341 41.0258C85.4341 41.0258 78.4341 48.0258 78.4341 56.5258C78.4341 65.0258 85.4341 72.0258 93.9341 72.0258C102.434 72.0258 109.434 65.0258 109.434 56.5258C109.434 48.0258 102.434 41.0258 93.9341 41.0258ZM351.934 29.5258C352.434 29.5258 352.934 30.0258 353.434 30.5258V46.5258C353.434 47.5258 352.434 48.0258 351.934 48.0258H325.434C324.434 48.0258 323.934 47.0258 323.934 46.5258V31.0258C323.934 30.0258 324.934 29.5258 325.434 29.5258H351.934ZM351.434 52.0258H300.434C299.934 52.0258 298.934 52.5258 298.934 53.5258L292.434 78.5258L291.934 80.0258L283.934 53.5258C283.934 53.0258 282.934 52.0258 282.434 52.0258H262.434C261.934 52.0258 260.934 52.5258 260.934 53.5258L253.434 78.5258L252.934 80.0258L252.434 78.5258L249.434 66.0258L246.434 53.5258C246.434 53.0258 245.434 52.0258 244.934 52.0258H204.934V30.5258C204.934 30.0258 203.934 29.0258 202.934 29.5258L177.934 37.5258C176.934 37.5258 176.434 38.0258 176.434 39.0258V52.5258H169.934C169.434 52.5258 168.434 53.0258 168.434 54.0258V73.0258C168.434 73.5258 168.934 74.5258 169.934 74.5258H176.434V98.0258C176.434 114.526 185.434 122.026 201.934 122.026C208.934 122.026 215.434 120.526 219.934 118.026V98.0258C219.934 97.0258 218.934 96.5258 218.434 97.0258C215.934 98.0258 213.434 98.5258 211.434 98.5258C206.934 98.5258 204.434 96.5258 204.434 91.5258V74.5258H218.934C219.434 74.5258 220.434 74.0258 220.434 73.0258V57.0258L239.434 120.026C239.434 120.526 240.434 121.526 240.934 121.526H261.934C262.434 121.526 263.434 121.026 263.434 120.026L272.434 92.0258L276.934 106.526L280.934 120.026C280.934 120.526 281.934 121.526 282.434 121.526H303.434C303.934 121.526 304.934 121.026 304.934 120.026L323.934 57.0258V120.026C323.934 120.526 324.434 121.526 325.434 121.526H350.934C351.434 121.526 352.434 121.026 352.434 120.026V53.5258C352.434 53.0258 351.934 52.0258 351.434 52.0258ZM384.934 29.5258H359.434C358.934 29.5258 357.934 30.0258 357.934 31.0258V119.526C357.934 120.026 358.434 121.026 359.434 121.026H384.934C385.434 121.026 386.434 120.526 386.434 119.526V30.5258C386.434 30.0258 385.934 29.5258 384.934 29.5258ZM418.934 29.5258H392.434C391.934 29.5258 390.934 30.0258 390.934 31.0258V46.5258C390.934 47.0258 391.434 48.0258 392.434 48.0258H418.934C419.434 48.0258 420.434 47.5258 420.434 46.5258V30.5258C420.434 30.0258 419.934 29.5258 418.934 29.5258ZM418.434 52.0258H392.934C392.434 52.0258 391.434 52.5258 391.434 53.5258V119.026C391.434 119.526 391.934 120.526 392.934 120.526H418.434C418.934 120.526 419.934 120.026 419.934 119.026V53.5258C419.934 53.0258 419.434 52.0258 418.434 52.0258ZM498.934 86.0258C498.934 105.026 482.934 121.526 460.434 121.526C438.434 121.526 422.434 105.026 422.434 86.0258C422.434 67.0258 438.434 50.5258 460.934 50.5258C482.934 50.5258 498.934 67.0258 498.934 86.0258ZM471.934 86.5258C471.934 79.5258 466.934 74.0258 460.934 74.5258C454.434 74.5258 449.934 80.0258 449.934 86.5258C449.934 93.0258 454.934 98.5258 460.934 98.5258C467.434 98.5258 471.934 93.0258 471.934 86.5258Z"
      fill="#fafafa" />
  </g>
  <defs>
    <clipPath id="clip0_177_123">
      <rect width="499" height="150" fill="#fafafa" transform="translate(0.434082 0.0258408)" />
    </clipPath>
  </defs>
</svg>